<svg width="69" height="68" viewBox="0 0 69 68" fill="none" xmlns="http://www.w3.org/2000/svg">
<path d="M60.3893 19.6266C56.8563 18.108 54.3906 19.8237 51.8955 20.4662C45.2638 22.1745 38.7131 24.2114 32.1624 26.1972C26.0238 28.0516 26.0165 28.0954 25.987 34.7755C25.9576 41.8279 26.0386 48.8804 25.9576 55.9329C25.884 62.5838 24.1617 65.0733 18.5752 67.0007C12.2379 69.1836 4.96589 67.687 1.63901 63.5183C-0.937109 60.2841 -0.466047 56.7067 2.9786 53.9617C5.79025 51.7204 9.12449 50.8224 12.628 51.1509C16.7719 51.5452 17.5447 49.4791 17.4858 45.9747C17.346 37.4621 17.4122 28.9495 17.4564 20.437C17.4932 13.3188 17.5153 13.2896 24.1322 11.3257C35.6291 7.90168 47.1333 4.52146 58.6375 1.14125C60.0434 0.725107 61.4565 0.250561 62.9065 0.0899457C67.1608 -0.369997 68.7727 0.871118 68.8905 5.27343C69.0892 12.3186 68.9567 19.3784 68.9567 26.4308C68.9567 33.7242 69.0156 41.0249 68.9347 48.3183C68.8611 54.4873 66.8664 56.8162 60.8162 58.7144C56.0467 60.2111 51.5348 59.5613 47.3836 57.1156C41.8265 53.8449 41.7971 48.4424 47.1259 44.8285C49.864 42.9742 52.9406 42.2587 56.2086 42.485C59.4325 42.704 60.4923 41.222 60.4261 38.1703C60.2936 31.8917 60.3893 25.6058 60.3893 19.6266Z" fill="#FF8F91"/>
</svg>
