<svg width="59" height="68" viewBox="0 0 59 68" fill="none" xmlns="http://www.w3.org/2000/svg">
<path d="M0.043267 33.3983C0.043267 26.6968 -0.0709849 19.9952 0.07183 13.3008C0.257489 4.67934 4.78472 0.156497 13.4393 0.0774013C26.5069 -0.0376473 39.5744 -0.00888516 52.6492 0.0630202C58.6331 0.0989729 58.9259 0.429737 58.9616 6.7646C59.033 19.2042 58.983 31.651 58.983 44.0907C58.983 46.0033 58.8545 47.8585 58.2118 49.728C56.9336 53.4527 57.3906 57.1199 58.4831 60.9309C59.8684 65.7773 58.3617 67.7835 53.3989 67.841C40.0957 67.992 26.7782 68.1214 13.4822 67.8051C4.799 67.5965 0.257489 62.3618 0.043267 53.4959C0.0361263 53.2586 0.043267 53.0141 0.043267 52.7768C0.0361263 46.3197 0.0361263 39.8554 0.043267 33.3983ZM30.1701 59.162C35.3828 59.162 40.6027 59.0542 45.8155 59.2052C48.8503 59.2915 50.0499 58.1697 49.9999 55.049C49.9571 52.2088 49.3644 50.5981 46.0797 50.6341C35.4114 50.7563 24.7431 50.6844 14.0748 50.6916C11.1186 50.6916 8.73356 51.6983 8.90493 55.1138C9.07631 58.5221 11.6898 59.1548 14.5176 59.162C19.7374 59.162 24.9502 59.1548 30.1701 59.162ZM31.2983 20.743C35.3114 20.743 39.3245 20.7718 43.3376 20.7214C44.5158 20.707 45.7869 20.4841 45.8297 18.9094C45.8726 17.5001 44.9728 16.7163 43.6375 16.7091C35.6113 16.6732 27.5851 16.6803 19.5661 16.7163C18.2093 16.7235 17.3667 17.5648 17.431 18.9526C17.5095 20.5273 18.7949 20.707 19.966 20.7214C23.7363 20.7861 27.5209 20.7502 31.2983 20.743ZM31.6125 29.3357C34.9187 29.3357 38.232 29.4507 41.5381 29.2854C43.1805 29.2063 45.9511 30.141 45.7512 27.1498C45.5727 24.4533 42.9377 25.3521 41.2025 25.1724C40.2671 25.0717 39.3174 25.1508 38.3677 25.1508C33.1692 25.1508 27.9707 25.0501 22.7723 25.2011C20.8657 25.2587 17.7309 24.1154 17.5595 27.1354C17.3739 30.4143 20.5872 29.1487 22.4009 29.271C25.4572 29.4939 28.5348 29.3429 31.6125 29.3357Z" fill="#03C4FC"/>
</svg>
