<svg width="472" height="232" viewBox="0 0 472 232" fill="none" xmlns="http://www.w3.org/2000/svg">
<path d="M109.564 61.1047C110.626 61.9289 111.22 63.0892 111.337 64.5973C111.61 68.0439 110.872 71.2367 109.151 74.1522C107.432 77.0784 104.925 79.4534 101.665 81.3075C98.3944 83.1516 94.6627 84.2699 90.4591 84.6525C85.4927 85.1104 81.0178 84.5482 77.0344 82.9657C73.0409 81.384 69.8138 78.9035 67.3319 75.5149C64.8603 72.1257 63.367 68.0826 62.881 63.3622C62.3651 58.3623 62.9068 53.6886 64.5067 49.352C66.1067 45.0155 68.5514 41.475 71.8417 38.7415C75.132 36.008 78.9142 34.4421 83.1781 34.0444C88.8158 33.5176 93.2632 34.4175 96.5175 36.7011C96.5076 36.561 96.5023 36.4856 96.4924 36.3455C96.4193 35.4517 96.8124 34.6334 97.6921 33.8891C98.5616 33.1456 99.7197 32.7175 101.135 32.5962C102.805 32.4569 104.136 32.7423 105.128 33.4414C106.12 34.1406 106.677 35.2277 106.791 36.6927C106.973 39.4201 107.068 40.778 107.26 43.5046C107.492 47.669 105.907 49.8925 102.506 50.1753C101.732 50.2406 100.948 50.1658 100.174 49.9387C99.4009 49.7223 98.7918 49.3645 98.3579 48.8752C96.9583 47.3274 95.8219 46.1727 94.9779 45.3874C94.1237 44.6027 93.0339 43.9646 91.7181 43.4616C90.3921 42.9592 88.8027 42.7895 86.9507 42.9632C84.4674 43.1922 82.1124 44.2244 79.8951 46.0484C77.6786 47.8832 75.9689 50.2239 74.7463 53.0826C73.5237 55.9413 73.0721 58.984 73.39 62.1892C73.6608 65.0186 74.5715 67.478 76.1117 69.5682C77.652 71.6584 79.6152 73.2097 82.0132 74.2431C84.4111 75.2765 86.9486 75.6719 89.6349 75.4178C91.701 75.229 93.5876 74.6738 95.2956 73.7629C97.0036 72.8521 98.343 71.653 99.3138 70.1659C100.274 68.6794 100.693 67.0579 100.539 65.3141C100.419 63.893 100.785 62.6975 101.629 61.7283C102.472 60.7592 103.713 60.1953 105.363 60.0575C107.096 59.9463 108.503 60.2805 109.564 61.1047Z" fill="white"/>
<path d="M152.034 75.6713C152.104 76.8036 151.648 77.7563 150.689 78.5279C149.729 79.2994 148.529 79.7196 147.091 79.81C145.612 79.8925 144.341 79.5921 143.288 78.8972C142.235 78.2023 141.661 77.1706 141.575 75.8011C141.206 69.9786 140.857 65.4651 140.54 62.2599C140.222 59.0547 139.751 56.4452 139.133 54.5067C138.725 53.2141 138.143 52.367 137.442 52.0156C136.73 51.6541 135.972 51.5017 135.146 51.5598C132.475 51.7371 130.576 52.8455 129.45 54.8959C128.324 56.9464 127.873 59.5558 128.096 62.7243C128.507 68.5656 128.703 71.4977 129.115 77.339C129.188 78.3844 128.749 79.2817 127.788 80.0317C126.828 80.7925 125.638 81.212 124.202 81.3239C122.765 81.4359 121.517 81.1663 120.458 80.5261C119.399 79.8858 118.829 79.0595 118.755 78.0141C118.075 68.9318 117.509 59.8847 117.091 50.8922C116.937 47.5347 116.798 42.3567 116.675 35.3795C116.646 33.3563 116.626 32.3504 116.596 30.3272C116.602 29.0921 117.05 28.0425 117.923 27.2012C118.795 26.3492 120.022 25.8729 121.601 25.7617C123.13 25.6541 124.358 25.925 125.295 26.5739C126.232 27.2228 126.728 28.1626 126.748 29.3201C126.819 34.8387 126.821 40.9795 126.972 47.4889C128.024 46.4185 129.354 45.5342 130.974 44.8245C132.594 44.1148 134.45 43.7025 136.55 43.5655C139.813 43.3574 142.441 44.0172 144.412 45.5355C146.383 47.0539 147.919 49.5234 148.989 52.9248C150.418 57.5138 151.425 65.1219 152.034 75.6713Z" fill="white"/>
<path d="M159.069 40.4314C157.76 39.2889 157.05 37.7901 156.951 35.945C156.851 34.0999 157.389 32.5675 158.583 31.3354C159.767 30.1148 161.369 29.4496 163.39 29.3507C165.35 29.256 166.984 29.7584 168.26 30.8599C169.546 31.9607 170.222 33.4186 170.308 35.2213C170.397 37.067 169.841 38.6333 168.662 39.9185C167.472 41.2045 165.913 41.8991 163.953 41.9938C162.014 42.0978 160.379 41.5739 159.069 40.4314ZM160.96 77.7615C159.916 77.0551 159.375 76.0643 159.357 74.7768C159.017 64.2841 158.852 59.032 158.523 48.5386C158.505 47.2619 158.955 46.223 159.893 45.4421C160.832 44.6612 162.071 44.2274 163.633 44.1499C165.246 44.0689 166.579 44.3865 167.634 45.103C168.697 45.8079 169.23 46.8318 169.252 48.1624C169.528 58.627 169.661 63.8597 169.948 74.3344C169.966 75.6112 169.495 76.6407 168.547 77.4223C167.598 78.2039 166.357 78.627 164.826 78.7023C163.295 78.7776 162.002 78.457 160.96 77.7615Z" fill="white"/>
<path d="M182.586 76.4881C181.641 75.7207 181.14 74.7162 181.084 73.4855C180.257 57.8068 179.44 42.1382 178.613 26.4595C178.554 25.1856 179.032 24.1122 180.028 23.2731C181.024 22.4341 182.313 21.9751 183.897 21.9177C185.47 21.8611 186.764 22.2032 187.749 22.957C188.745 23.71 189.257 24.7246 189.306 25.9992C190.03 41.6743 190.744 57.3501 191.459 73.0366C191.512 74.3651 191.034 75.4385 190.037 76.256C189.039 77.0735 187.79 77.5081 186.309 77.569C184.775 77.612 183.531 77.2555 182.586 76.4881Z" fill="white"/>
<path d="M206.631 75.9651C203.659 74.4955 201.308 72.3758 199.575 69.5844C197.842 66.7929 196.905 63.523 196.774 59.774C196.644 56.0358 197.323 52.7387 198.834 49.8923C200.344 47.0458 202.534 44.8338 205.423 43.2333C208.302 41.6443 211.674 40.8004 215.53 40.7239C219.09 40.6574 222.037 41.338 224.361 42.7773C224.536 35.9525 224.633 32.534 224.818 25.6977C224.862 23.7018 224.895 22.7139 224.939 20.718C224.961 19.5792 225.459 18.656 226.434 17.9592C227.41 17.2623 228.634 16.8946 230.118 16.8768C231.745 16.8597 233.105 17.2621 234.176 18.0748C235.248 18.8983 235.73 19.9258 235.592 21.1594C235.339 23.5275 235.125 28.7845 234.991 36.917C234.846 45.0501 234.829 52.2212 234.928 58.431C235.011 63.6889 235.165 66.8947 235.445 67.9581C235.671 68.8411 236.341 70.0612 237.379 71.5693C237.675 71.9926 237.823 72.4912 237.832 73.0645C237.855 74.2543 237.306 75.3327 236.186 76.3105C235.077 77.2875 233.842 77.786 232.502 77.8046C231.878 77.816 231.278 77.7391 230.703 77.5738C230.128 77.4085 229.662 77.1922 229.325 76.9126C227.867 75.8456 226.78 74.5249 226.077 72.9715C223.544 76.2799 220.447 77.9709 216.764 78.0352C212.979 78.1175 209.602 77.4239 206.631 75.9651ZM220.646 68.7291C221.882 67.949 222.856 66.9489 223.58 65.7283C224.303 64.5077 224.645 63.2597 224.627 61.983C224.534 57.744 224.497 55.6237 224.403 51.3847C223.855 50.7301 222.735 50.0942 221.043 49.4876C219.351 48.8811 217.753 48.582 216.239 48.6128C213.324 48.6664 211.07 49.6807 209.497 51.6434C207.925 53.6062 207.19 56.2681 207.294 59.6291C207.391 62.7524 208.316 65.2757 210.089 67.1763C211.851 69.0775 214.037 70.0067 216.635 69.9538C218.076 69.9065 219.411 69.5093 220.646 68.7291Z" fill="white"/>
<path d="M277.544 73.0415C277.542 74.1789 277.023 75.0927 276.017 75.7917C275.011 76.4907 273.785 76.8261 272.339 76.8088C270.853 76.7943 269.607 76.4055 268.6 75.6316C267.593 74.8684 267.087 73.7885 267.093 72.4126C267.092 66.5858 267.039 62.0515 266.915 58.8327C266.791 55.6139 266.503 52.9807 266.005 51.0012C265.677 49.6813 265.154 48.7976 264.47 48.3908C263.785 47.9841 263.033 47.7771 262.203 47.7706C259.528 47.7531 257.559 48.7365 256.304 50.6986C255.049 52.6606 254.432 55.2385 254.46 58.4098C254.494 64.2668 254.516 67.2004 254.549 73.0574C254.551 74.0971 254.059 74.9657 253.052 75.6539C252.045 76.3421 250.83 76.6876 249.386 76.681C247.952 76.6844 246.718 76.3272 245.705 75.6187C244.692 74.9102 244.18 74.0365 244.169 72.9976C244.071 63.8959 244.078 54.8301 244.223 45.8305C244.283 42.4688 244.472 37.3001 244.791 30.3244C244.884 28.3033 244.936 27.2924 245.029 25.2714C245.116 24.0413 245.619 23.0312 246.547 22.2402C247.475 21.4601 248.727 21.0578 250.304 21.0551C251.831 21.056 253.044 21.4146 253.934 22.1209C254.824 22.838 255.261 23.8037 255.21 24.9662C254.932 30.4769 254.544 36.6019 254.284 43.0969C255.402 42.0976 256.791 41.3175 258.439 40.7249C260.099 40.1423 261.973 39.8479 264.084 39.8618C267.353 39.8807 269.933 40.7281 271.811 42.3829C273.689 44.0377 275.059 46.6164 275.907 50.0767C277.081 54.8245 277.61 62.4771 277.544 73.0415Z" fill="white"/>
<path d="M286.532 72.8096C282.987 69.5934 281.218 65.1365 281.259 59.4584C281.286 55.7632 282.109 52.4777 283.742 49.6226C285.374 46.7568 287.666 44.5484 290.641 43.0068C293.615 41.4544 297.108 40.732 301.112 40.8509C305.166 40.9662 308.715 41.9077 311.758 43.6647C314.791 45.4223 317.111 47.8259 318.716 50.8429C320.312 53.8606 321.064 57.2735 320.952 61.0613C320.799 66.6065 318.915 70.8331 315.341 73.7599C311.757 76.6873 306.978 78.0527 300.984 77.8898C294.886 77.7017 290.077 76.0258 286.532 72.8096ZM307.839 67.7355C309.49 66.1571 310.355 63.746 310.425 60.5243C310.498 57.3458 309.763 54.6141 308.238 52.3062C306.704 50.0098 304.407 48.8069 301.338 48.7197C298.464 48.6404 296.166 49.6036 294.432 51.5994C292.698 53.5952 291.823 56.2994 291.776 59.7144C291.733 63.0316 292.525 65.5535 294.142 67.2701C295.758 68.9867 298.034 69.8879 300.97 69.9736C303.905 70.0594 306.188 69.3138 307.839 67.7355Z" fill="white"/>
<path d="M328.848 74.1412C325.368 70.8337 323.69 66.3488 323.853 60.6621C323.962 56.972 324.848 53.7037 326.545 50.8874C328.231 48.0611 330.579 45.9138 333.589 44.4347C336.599 42.9556 340.108 42.3187 344.107 42.5245C348.158 42.7375 351.692 43.7559 354.69 45.5919C357.687 47.4279 359.959 49.8781 361.496 52.9325C363.032 55.9869 363.704 59.4163 363.519 63.1983C363.253 68.7298 361.274 72.9198 357.632 75.7539C353.981 78.5994 349.173 79.8477 343.19 79.5433C337.094 79.2359 332.327 77.4379 328.848 74.1412ZM350.273 69.5786C351.958 68.0412 352.865 65.6596 353.007 62.4329C353.142 59.2608 352.477 56.5025 350.991 54.1702C349.506 51.8379 347.235 50.5789 344.162 50.427C341.294 50.2824 338.97 51.1824 337.193 53.1379C335.425 55.0928 334.477 57.7805 334.369 61.189C334.254 64.5004 334.996 67.0367 336.574 68.7993C338.153 70.5618 340.412 71.5076 343.342 71.6587C346.282 71.8091 348.589 71.116 350.273 69.5786Z" fill="white"/>
<path d="M375.631 79.7071C372.794 77.9681 370.622 75.63 369.134 72.6805C367.646 69.731 366.991 66.3872 367.179 62.659C367.366 58.9201 368.329 55.7115 370.075 53.0216C371.822 50.3318 374.201 48.334 377.213 47.028C380.225 45.7221 383.661 45.2094 387.513 45.5015C391.076 45.7705 393.951 46.7378 396.146 48.3812C396.908 41.6017 397.294 38.2062 398.056 31.4268C398.275 29.451 398.379 28.458 398.599 26.4822C398.724 25.3471 399.298 24.4835 400.331 23.8801C401.364 23.2766 402.617 23.0368 404.101 23.1598C405.729 23.2943 407.047 23.8297 408.044 24.7451C409.04 25.6605 409.434 26.7376 409.191 27.946C408.73 30.2746 408.073 35.4978 407.238 43.5713C406.404 51.6447 405.769 58.7835 405.334 64.9767C404.966 70.223 404.843 73.4267 405.032 74.5073C405.188 75.4061 405.749 76.6879 406.65 78.2816C406.907 78.7292 407.015 79.2415 406.973 79.8077C406.892 80.9939 406.247 82.014 405.059 82.8883C403.861 83.7633 402.596 84.1339 401.256 84.0224C400.638 83.9685 400.045 83.837 399.477 83.6278C398.919 83.418 398.471 83.1571 398.162 82.8431C396.797 81.6396 395.826 80.2241 395.263 78.6175C392.456 81.6744 389.224 83.05 385.537 82.768C381.776 82.4587 378.468 81.4461 375.631 79.7071ZM390.236 73.8485C391.531 73.1941 392.594 72.2853 393.415 71.1445C394.236 70.0036 394.694 68.7908 394.778 67.5069C395.054 63.2852 395.191 61.1635 395.458 56.9425C394.968 56.2405 393.902 55.5033 392.27 54.73C390.638 53.9568 389.06 53.5155 387.557 53.4047C384.643 53.1875 382.312 53.9798 380.574 55.77C378.835 57.5603 377.881 60.1511 377.697 63.5107C377.518 66.6317 378.243 69.2233 379.833 71.2884C381.432 73.3527 383.529 74.4723 386.125 74.6794C387.566 74.773 388.93 74.5037 390.236 73.8485Z" fill="white"/>
<path d="M55.1172 135.835C55.6581 139.88 56.0536 143.026 56.3055 145.293C56.4797 146.895 56.1811 148.183 55.3996 149.158C54.6181 150.134 53.4401 150.715 51.8749 150.89C50.3004 151.077 49.0107 150.8 47.9854 150.06C46.9602 149.319 46.3725 148.245 46.2119 146.838C45.3267 139.21 44.8841 135.397 44.009 127.768C43.4789 123.149 42.9205 119.581 42.3424 117.044C41.7643 114.507 41.2576 113.276 40.8413 113.327C40.4656 113.375 40.0179 114.435 39.4972 116.497C38.9773 118.57 38.5579 120.614 38.2161 122.598C37.7418 125.318 37.2789 128.491 36.8558 132.084C36.6818 133.396 36.1597 134.419 35.3097 135.15C34.4496 135.882 33.253 136.345 31.72 136.54C28.6037 136.943 26.5731 136.036 25.6282 133.817C25.1363 132.649 24.9001 132.06 24.4082 130.892C23.4565 128.576 22.4965 126.434 21.5274 124.456C20.7613 122.885 19.8192 121.143 18.712 119.238C17.6049 117.334 16.9345 116.396 16.7008 116.423C16.4169 116.465 16.3777 117.8 16.573 120.429C16.7684 123.058 17.1169 126.553 17.5646 130.876C17.7448 132.563 18.0068 134.83 18.3695 137.653C19.0545 142.728 19.3966 145.26 20.0817 150.334C20.2425 151.601 19.9194 152.685 19.0918 153.588C18.2744 154.491 17.0541 155.053 15.441 155.275C13.8687 155.494 12.6119 155.247 11.6384 154.514C10.6759 153.791 10.0449 152.395 9.76599 150.324C9.311 146.771 9.08313 144.989 8.63834 141.436C8.19605 137.481 7.82162 134.345 7.51656 132.049C6.65666 125.654 6.29248 120.481 6.42251 116.508C6.56273 112.534 7.22426 109.563 8.3954 107.575C9.57749 105.596 11.3292 104.433 13.6425 104.118C16.4326 103.738 18.8852 104.529 20.9807 106.504C23.0763 108.48 24.7547 110.788 26.0169 113.439C27.2799 116.101 28.5683 119.27 29.8742 122.98C30.3143 119.191 30.8858 115.815 31.5772 112.831C32.2685 109.847 33.4194 107.134 35.0196 104.693C36.6199 102.252 38.7852 100.854 41.4874 100.534C43.9559 100.241 45.9891 101.04 47.5964 102.919C49.2045 104.81 50.4796 107.644 51.4523 111.421C52.4249 115.197 53.2311 120.101 53.9021 126.141C54.1653 128.57 54.5764 131.79 55.1172 135.835Z" fill="white"/>
<path d="M71.497 146.466C68.4451 145.164 66.0423 143.189 64.3074 140.517C62.5726 137.845 61.5028 134.725 61.1168 131.135C60.7317 127.555 61.227 124.26 62.5941 121.272C63.9612 118.284 66.013 115.854 68.7501 113.994C71.4872 112.133 74.6452 111.012 78.2364 110.662C81.4402 110.339 84.4356 110.691 87.2224 111.719C90.0092 112.746 92.2647 114.375 94.0005 116.624C95.7363 118.874 96.7475 121.597 97.0355 124.815C97.2095 126.85 96.9756 128.329 96.3352 129.273C95.6847 130.217 94.5036 130.755 92.7739 130.92C83.7372 131.762 79.2105 132.211 70.1821 133.172C70.3026 134.3 70.8103 135.402 71.7156 136.475C72.6209 137.549 73.91 138.4 75.5634 139.042C77.2269 139.683 79.1369 139.895 81.3238 139.676C83.277 139.485 84.7816 139.032 85.8392 138.34C86.896 137.638 87.9731 136.641 89.0807 135.35C89.8886 134.459 90.7662 133.975 91.6922 133.888C92.7609 133.791 93.8075 134.108 94.8123 134.849C95.8172 135.591 96.3615 136.484 96.4547 137.517C96.535 138.367 96.3284 139.216 95.8357 140.073C94.9993 141.724 93.4833 143.326 91.2886 144.888C89.0939 146.451 86.1299 147.418 82.3866 147.789C78.1744 148.194 74.5489 147.767 71.497 146.466ZM87.6837 124.965C88.1008 124.924 88.3707 124.83 88.4722 124.671C88.5745 124.523 88.6065 124.25 88.5799 123.873C88.4094 122.032 87.3953 120.577 85.5179 119.518C83.6405 118.458 81.4104 118.063 78.8268 118.321C76.7622 118.531 75.0001 119.11 73.5617 120.067C72.1131 121.024 71.0538 122.128 70.3728 123.367C69.6918 124.607 69.4132 125.742 69.5174 126.785C76.7776 126.025 80.419 125.66 87.6837 124.965Z" fill="white"/>
<path d="M147.011 110.824C149.255 113.893 150.543 118.222 150.875 123.808C151.038 126.559 151.14 128.588 151.172 129.918C151.332 133.069 151.412 134.645 151.573 137.807C151.643 138.939 151.279 139.874 150.48 140.613C149.682 141.351 148.595 141.764 147.207 141.84C145.769 141.93 144.551 141.648 143.553 141.003C142.555 140.359 142.015 139.389 141.936 138.117C141.581 132.64 141.398 129.902 141.043 124.414C140.797 120.63 140.301 117.946 139.566 116.384C138.831 114.822 137.744 114.075 136.337 114.175C135.298 114.248 134.449 115.141 133.793 116.877C133.136 118.613 132.892 121.11 133.071 124.379C133.207 126.309 133.275 127.279 133.401 129.208C133.666 132.98 133.789 134.867 134.055 138.65C134.238 141.247 132.77 142.661 129.672 142.879C128.051 142.993 126.774 142.747 125.839 142.12C124.904 141.504 124.397 140.554 124.296 139.272C123.907 133.592 123.707 130.757 123.307 125.078C123.064 121.77 122.537 119.37 121.746 117.888C120.955 116.405 119.842 115.715 118.436 115.825C117.539 115.899 116.687 116.587 115.868 117.912C115.05 119.236 114.499 121.16 114.157 123.577C113.957 124.956 113.91 126.757 114.083 128.933C114.316 131.516 114.427 132.797 114.66 135.38C114.83 137.502 114.915 138.568 115.086 140.7C115.17 141.745 114.769 142.596 113.893 143.254C113.008 143.922 111.928 144.302 110.625 144.415C109.332 144.528 108.19 144.316 107.213 143.811C106.234 143.295 105.707 142.498 105.61 141.411C104.88 132.797 104.525 128.479 103.796 119.866C103.709 118.778 103.571 117.987 103.382 117.48C103.193 116.974 102.852 116.499 102.34 116.07C102.286 116.03 102.134 115.9 101.883 115.679C101.631 115.459 101.432 115.245 101.293 115.017C101.154 114.789 101.075 114.534 101.055 114.254C100.948 113.027 101.325 111.982 102.176 111.121C103.027 110.259 104.018 109.789 105.159 109.687C106.106 109.609 107.225 110.224 108.445 111.557C109.332 112.512 109.814 113.54 109.897 114.574C109.909 114.746 109.915 114.832 109.927 115.005C110.537 113.196 111.535 111.653 112.93 110.375C114.326 109.096 116.159 108.371 118.421 108.19C120.682 108.009 122.498 108.347 123.867 109.171C125.226 109.996 126.327 111.219 127.156 112.817C128.062 110.988 129.353 109.543 131.01 108.484C132.666 107.415 134.61 106.812 136.823 106.667C141.37 106.358 144.766 107.743 147.011 110.824Z" fill="white"/>
<path d="M161.05 136.522C157.41 133.562 155.416 129.24 155.088 123.566C154.88 119.877 155.454 116.544 156.853 113.564C158.242 110.596 160.318 108.219 163.093 106.464C165.868 104.709 169.201 103.738 173.071 103.563C176.991 103.384 180.492 104.07 183.54 105.609C186.588 107.149 188.978 109.375 190.719 112.285C192.46 115.184 193.393 118.541 193.537 122.332C193.742 127.874 192.205 132.228 188.926 135.415C185.657 138.591 181.127 140.307 175.327 140.564C169.445 140.816 164.69 139.483 161.05 136.522ZM181.319 129.94C182.808 128.243 183.485 125.78 183.35 122.562C183.209 119.388 182.334 116.709 180.705 114.517C179.076 112.335 176.77 111.296 173.809 111.428C171.032 111.559 168.867 112.675 167.326 114.798C165.785 116.91 165.109 119.676 165.288 123.086C165.459 126.399 166.39 128.857 168.06 130.462C169.73 132.066 171.984 132.796 174.833 132.671C177.662 132.548 179.831 131.637 181.319 129.94Z" fill="white"/>
<path d="M222.719 103.263C224.346 104.112 225.652 105.342 226.625 106.941C227.598 108.541 228.107 110.4 228.156 112.541C228.219 115.623 227.261 118.019 225.302 119.728C223.344 121.447 220.794 122.33 217.663 122.388C216.026 122.417 214.874 122.195 214.205 121.711C213.536 121.228 213.18 120.397 213.148 119.208C213.119 118.073 213.328 117.267 213.788 116.813C214.247 116.347 214.903 116.063 215.745 115.949C218.496 115.593 219.868 114.424 219.817 112.381C219.798 111.527 219.578 110.881 219.167 110.434C218.757 109.986 218.199 109.776 217.494 109.793C216.225 109.818 215.059 110.571 214.015 112.031C212.971 113.502 212.128 115.207 211.476 117.138C210.824 119.079 210.437 120.72 210.274 122.042C210.021 124.118 209.955 127.837 210.103 133.145C210.181 135.706 209.863 137.45 209.172 138.398C208.481 139.346 207.224 139.835 205.415 139.886C203.748 139.928 202.468 139.639 201.583 138.997C200.698 138.356 200.207 137.35 200.121 135.981C200.08 134.673 200.054 134.015 200.003 132.708C199.894 129.412 199.829 127.759 199.72 124.464C199.619 121.428 199.459 118.861 199.239 116.754C199.029 114.646 198.695 111.94 198.247 108.636C198.094 107.477 198.012 106.898 197.858 105.728C197.724 104.546 198.074 103.557 198.931 102.782C199.777 101.997 200.987 101.576 202.552 101.542C205.199 101.464 206.653 102.618 206.922 104.982C207.053 106.11 207.197 107.724 207.354 109.803C208.23 107.554 209.513 105.709 211.194 104.269C212.875 102.83 214.954 102.087 217.419 102.033C219.332 102.007 221.092 102.414 222.719 103.263Z" fill="white"/>
<path d="M236.402 99.7436C235.171 98.5415 234.541 97.0261 234.514 95.1761C234.486 93.326 235.066 91.8122 236.264 90.6448C237.462 89.4774 239.038 88.879 240.994 88.8713C242.898 88.8564 244.455 89.4292 245.663 90.5896C246.872 91.7501 247.477 93.2237 247.492 95.0314C247.509 96.8822 246.921 98.4182 245.728 99.6611C244.534 100.893 242.991 101.522 241.097 101.536C239.192 101.54 237.634 100.946 236.402 99.7436ZM236.872 137.109C235.886 136.355 235.406 135.349 235.428 134.059C235.477 123.56 235.508 118.316 235.567 107.817C235.59 106.537 236.072 105.529 237.013 104.78C237.944 104.043 239.167 103.665 240.683 103.655C242.239 103.643 243.525 104.018 244.531 104.771C245.536 105.523 246.019 106.561 245.98 107.896C245.867 118.367 245.805 123.602 245.692 134.062C245.659 135.342 245.166 136.352 244.225 137.089C243.283 137.827 242.07 138.205 240.575 138.213C239.101 138.23 237.867 137.862 236.872 137.109Z" fill="white"/>
<path d="M263.41 136.941C260.499 135.315 258.314 133.076 256.853 130.222C255.393 127.379 254.643 124.15 254.625 120.544C254.606 116.939 255.415 113.73 257.081 110.916C258.737 108.103 261.021 105.917 263.934 104.369C266.837 102.821 270.103 102.072 273.701 102.111C276.92 102.155 279.867 102.836 282.532 104.164C285.196 105.493 287.275 107.372 288.788 109.8C290.29 112.228 291.021 115.047 290.982 118.277C290.952 120.316 290.572 121.761 289.834 122.625C289.096 123.49 287.865 123.901 286.131 123.861C277.053 123.688 272.522 123.628 263.441 123.563C263.44 124.7 263.838 125.853 264.638 127.02C265.437 128.188 266.623 129.177 268.207 129.997C269.791 130.816 271.674 131.236 273.869 131.266C275.827 131.29 277.365 131.02 278.492 130.442C279.619 129.865 280.787 129.003 282.016 127.833C282.913 127.044 283.828 126.655 284.762 126.676C285.839 126.697 286.843 127.136 287.763 127.981C288.683 128.826 289.139 129.779 289.13 130.82C289.119 131.676 288.828 132.498 288.259 133.285C287.261 134.829 285.59 136.257 283.254 137.558C280.919 138.871 277.869 139.497 274.107 139.448C269.883 139.399 266.321 138.566 263.41 136.941ZM281.67 117.384C282.09 117.387 282.362 117.325 282.485 117.186C282.599 117.048 282.662 116.784 282.666 116.404C282.679 114.551 281.812 112.999 280.053 111.736C278.295 110.474 276.118 109.825 273.524 109.791C271.453 109.764 269.647 110.151 268.115 110.941C266.583 111.731 265.413 112.713 264.613 113.863C263.813 115.024 263.42 116.124 263.421 117.163C270.718 117.213 274.368 117.259 281.67 117.384Z" fill="white"/>
<path d="M301.051 137.627C298.571 136.014 296.805 133.918 295.773 131.338C295.508 130.62 295.374 130.023 295.381 129.546C295.393 128.548 295.921 127.612 296.966 126.737C298.01 125.862 299.139 125.447 300.36 125.48C301.057 125.496 301.623 125.673 302.035 125.99C302.446 126.308 302.775 126.61 302.998 126.876C303.222 127.142 303.368 127.326 303.406 127.421C304.73 129.072 305.827 130.24 306.695 130.937C307.563 131.623 308.634 131.992 309.897 132.033C311.067 132.07 312.076 131.858 312.924 131.387C313.772 130.915 314.216 130.234 314.234 129.334C314.256 128.336 313.79 127.535 312.815 126.932C311.851 126.328 310.236 125.651 308.09 124.849C305.692 123.957 303.713 123.056 302.202 122.253C300.691 121.45 299.38 120.286 298.248 118.762C297.116 117.239 296.571 115.317 296.613 112.996C296.644 110.676 297.344 108.688 298.693 107.045C300.042 105.401 301.829 104.16 304.044 103.321C306.259 102.483 308.65 102.109 311.207 102.2C313.949 102.288 316.326 102.89 318.309 103.985C320.291 105.08 321.783 106.491 322.765 108.209C323.757 109.937 324.223 111.746 324.161 113.635C324.118 114.916 323.745 115.873 323.021 116.509C322.298 117.145 321.109 117.424 319.466 117.366C318.007 117.306 317.014 117.03 316.489 116.547C315.962 116.053 315.617 115.363 315.517 114.525C315.384 113.364 315.068 112.369 314.494 111.64C313.921 110.911 312.766 110.516 311.02 110.455C309.696 110.407 308.665 110.61 307.929 111.062C307.192 111.515 306.808 112.17 306.796 113.016C306.777 114.057 307.265 114.878 308.26 115.48C309.255 116.081 310.909 116.734 313.124 117.488C315.485 118.296 317.451 119.154 318.982 119.945C320.512 120.736 321.812 121.88 322.9 123.374C323.979 124.868 324.483 126.793 324.414 129.159C324.338 131.861 323.519 134.052 321.978 135.742C320.438 137.432 318.544 138.616 316.298 139.294C314.051 139.972 311.808 140.27 309.58 140.2C306.367 140.101 303.531 139.239 301.051 137.627Z" fill="white"/>
<path d="M389.182 137.163C389.641 137.726 389.82 138.667 389.739 139.983C389.665 141.114 389.311 142.06 388.679 142.819C388.046 143.579 387.24 143.917 386.272 143.844C384.274 143.693 382.763 143.322 381.718 142.746C380.684 142.169 379.754 141.184 378.95 139.8C377.836 141.287 376.38 142.288 374.582 142.794C372.785 143.31 370.697 143.479 368.33 143.32C363.091 142.964 359.175 141.181 356.57 137.931C353.966 134.692 352.777 130.325 353.026 124.838C353.183 121.242 354.057 118.093 355.649 115.382C357.24 112.671 359.38 110.625 362.078 109.222C364.776 107.829 367.829 107.246 371.235 107.472C372.934 107.591 374.501 108.033 375.928 108.799C377.354 109.565 378.415 110.519 379.11 111.662C379.187 111.299 379.225 111.112 379.302 110.749C379.43 110.09 379.843 109.563 380.532 109.168C381.221 108.762 382.276 108.623 383.687 108.729C385.201 108.839 386.294 109.239 386.956 109.907C387.617 110.575 387.931 111.387 387.874 112.334C387.856 112.66 387.813 112.923 387.755 113.111C387.375 114.697 386.929 117.382 386.404 121.134C386.157 122.863 385.947 125.109 385.771 127.85C385.686 129.264 385.644 129.982 385.549 131.397C385.461 132.768 385.515 133.825 385.702 134.581C385.887 135.326 386.383 135.822 387.155 136.017C388.05 136.224 388.732 136.599 389.182 137.163ZM376.373 121.234C376.464 119.624 376.011 118.27 375.012 117.181C374.013 116.093 372.68 115.483 371.033 115.371C368.913 115.228 367.12 116.091 365.654 117.97C364.188 119.85 363.379 122.322 363.227 125.398C363.075 128.332 363.57 130.713 364.693 132.54C365.815 134.367 367.4 135.35 369.449 135.498C371.363 135.623 372.852 135.247 373.936 134.348C375.02 133.448 375.631 132.084 375.788 130.243C375.949 128.303 376.147 125.3 376.373 121.234Z" fill="white"/>
<path d="M422.303 111.329C423.84 112.358 425.012 113.726 425.818 115.424C426.624 117.122 426.943 119.038 426.765 121.163C426.51 124.235 425.317 126.496 423.188 127.978C421.06 129.46 418.438 130.045 415.303 129.746C413.663 129.591 412.542 129.236 411.919 128.685C411.297 128.133 411.041 127.263 411.121 126.077C411.205 124.944 411.499 124.176 412.004 123.772C412.508 123.369 413.189 123.147 414.039 123.142C416.812 123.109 418.308 122.094 418.463 120.069C418.526 119.219 418.376 118.548 418.014 118.064C417.652 117.58 417.11 117.304 416.409 117.235C415.141 117.118 413.903 117.725 412.717 119.065C411.531 120.405 410.507 122.004 409.664 123.851C408.82 125.697 408.257 127.296 407.969 128.584C407.508 130.62 407.05 134.302 406.664 139.593C406.475 142.141 405.99 143.843 405.2 144.7C404.411 145.557 403.114 145.908 401.31 145.742C399.64 145.6 398.4 145.157 397.591 144.423C396.781 143.689 396.389 142.634 396.446 141.254C396.538 139.948 396.574 139.296 396.667 137.99C396.886 134.703 397.006 133.06 397.225 129.773C397.432 126.748 397.538 124.184 397.532 122.062C397.537 119.95 397.479 117.224 397.377 113.885C397.346 112.717 397.324 112.123 397.294 110.956C397.281 109.765 397.728 108.835 398.663 108.152C399.588 107.469 400.839 107.197 402.395 107.326C405.044 107.551 406.376 108.865 406.4 111.246C406.408 112.383 406.389 113.998 406.331 116.092C407.431 113.957 408.9 112.272 410.728 111.028C412.556 109.795 414.702 109.286 417.157 109.525C419.054 109.695 420.766 110.3 422.303 111.329Z" fill="white"/>
<path d="M437.293 146.892C434.536 144.974 432.561 142.535 431.367 139.543C430.164 136.563 429.718 133.28 430.018 129.696C430.319 126.111 431.422 123.001 433.336 120.364C435.25 117.728 437.726 115.788 440.763 114.556C443.801 113.324 447.12 112.896 450.713 113.303C453.925 113.673 456.8 114.651 459.33 116.238C461.869 117.825 463.778 119.911 465.054 122.475C466.341 125.038 466.811 127.929 466.472 131.126C466.267 133.155 465.751 134.556 464.936 135.339C464.12 136.122 462.849 136.406 461.124 136.192C452.084 135.096 447.56 134.569 438.508 133.593C438.403 134.727 438.702 135.908 439.393 137.148C440.085 138.388 441.177 139.503 442.69 140.479C444.193 141.456 446.04 142.074 448.228 142.32C450.18 142.54 451.739 142.431 452.916 141.969C454.092 141.507 455.341 140.769 456.671 139.733C457.636 139.037 458.589 138.743 459.519 138.861C460.593 138.991 461.553 139.53 462.398 140.467C463.242 141.404 463.609 142.396 463.508 143.432C463.424 144.283 463.06 145.067 462.415 145.806C461.276 147.239 459.489 148.481 457.035 149.553C454.579 150.614 451.488 150.929 447.739 150.499C443.525 150.005 440.05 148.81 437.293 146.892ZM457.289 129.303C457.712 129.349 457.987 129.319 458.121 129.19C458.255 129.062 458.34 128.807 458.375 128.436C458.564 126.603 457.834 124.965 456.196 123.531C454.559 122.098 452.439 121.229 449.857 120.934C447.792 120.701 445.952 120.895 444.347 121.528C442.743 122.161 441.491 123.007 440.593 124.077C439.685 125.149 439.196 126.201 439.105 127.237C446.372 128.025 450.016 128.429 457.289 129.303Z" fill="white"/>
<path d="M104.124 193.632C104.859 194.187 105.276 195.154 105.403 196.521C105.674 199.643 104.944 202.228 103.225 204.288C101.505 206.348 99.2214 207.516 96.3516 207.783C92.4546 208.155 89.4585 206.773 87.3415 203.619C85.2252 200.476 83.8051 195.29 83.0921 188.073C82.8777 185.9 82.7458 184.317 82.6964 183.325C82.3781 183.314 81.8481 183.352 81.1252 183.413C78.5604 183.648 77.1051 182.473 76.8539 179.923C76.7198 178.601 76.9448 177.578 77.5392 176.853C78.1335 176.129 79.2705 175.692 80.9625 175.573C81.5646 175.541 81.8704 175.52 82.4725 175.488C82.4998 172.529 82.6737 168.889 82.9943 164.567C83.0668 163.413 83.5048 162.505 84.2973 161.832C85.0899 161.159 86.1475 160.76 87.4797 160.623C89.0362 160.47 90.2938 160.728 91.2329 161.409C92.1713 162.079 92.6944 162.963 92.7915 164.05C92.787 164.278 92.7851 164.397 92.7705 164.626C92.7127 165.55 92.6936 166.007 92.635 166.92C92.44 170.844 92.3216 173.528 92.2689 174.961C93.8322 174.905 95.0255 174.832 95.8402 174.764C98.1414 174.569 99.4431 175.745 99.6671 178.198C99.774 179.425 99.5436 180.373 98.9564 181.053C98.3787 181.722 97.332 182.132 95.8359 182.27C94.4724 182.398 93.7902 182.457 92.4274 182.596C92.4738 183.546 92.5902 185.054 92.7774 187.131C93.1055 190.628 93.427 193.302 93.7613 195.142C94.0964 196.992 94.4502 198.234 94.8226 198.868C95.1951 199.503 95.635 199.786 96.1337 199.74C96.7649 199.685 97.1465 199.431 97.2894 198.987C97.4323 198.544 97.4506 197.785 97.3535 196.697C97.1565 194.48 98.289 193.252 100.772 193.023C102.288 192.873 103.398 193.077 104.124 193.632Z" fill="white"/>
<path d="M132.06 168.943C133.681 169.706 135.002 170.859 136.023 172.411C137.043 173.953 137.634 175.796 137.773 177.92C137.979 180.992 137.178 183.442 135.369 185.248C133.561 187.065 131.144 188.08 128.117 188.304C126.528 188.427 125.41 188.256 124.733 187.806C124.056 187.355 123.681 186.548 123.588 185.363C123.498 184.232 123.666 183.419 124.082 182.935C124.499 182.45 125.121 182.125 125.93 181.971C128.568 181.471 129.844 180.233 129.69 178.197C129.63 177.345 129.391 176.712 128.972 176.287C128.552 175.862 127.997 175.684 127.314 175.732C126.081 175.819 125.001 176.631 124.063 178.149C123.126 179.677 122.388 181.418 121.861 183.383C121.333 185.348 121.03 187.016 120.95 188.343C120.81 190.432 120.928 194.15 121.342 199.438C121.542 201.991 121.328 203.761 120.711 204.736C120.083 205.711 118.903 206.271 117.152 206.416C115.543 206.551 114.287 206.325 113.405 205.727C112.524 205.139 111.994 204.158 111.836 202.794C111.724 201.491 111.668 200.834 111.566 199.531C111.294 196.247 111.157 194.599 110.874 191.305C110.62 188.28 110.338 185.722 110.027 183.632C109.716 181.542 109.26 178.855 108.66 175.572C108.456 174.417 108.354 173.839 108.139 172.685C107.944 171.507 108.242 170.511 109.024 169.687C109.806 168.863 110.95 168.382 112.468 168.254C115.024 168.041 116.493 169.118 116.863 171.464C117.044 172.589 117.259 174.187 117.518 176.259C118.247 173.966 119.404 172.054 120.955 170.526C122.517 168.997 124.485 168.144 126.87 167.965C128.727 167.867 130.45 168.179 132.06 168.943Z" fill="white"/>
<path d="M151.62 201.617C148.712 200.176 146.466 198.092 144.879 195.345C143.293 192.597 142.383 189.423 142.14 185.833C141.898 182.244 142.498 178.974 143.921 176.058C145.354 173.141 147.423 170.807 150.139 169.078C152.855 167.349 155.952 166.384 159.431 166.193C162.543 166.017 165.425 166.507 168.078 167.664C170.729 168.809 172.86 170.555 174.458 172.879C176.055 175.203 176.927 177.98 177.082 181.196C177.184 183.236 176.899 184.708 176.235 185.61C175.572 186.523 174.407 187.006 172.733 187.091C163.964 187.513 159.576 187.747 150.805 188.288C150.874 189.421 151.333 190.547 152.169 191.658C153.005 192.769 154.217 193.68 155.804 194.402C157.38 195.114 159.235 195.417 161.347 195.301C163.245 195.2 164.715 194.825 165.765 194.177C166.815 193.53 167.896 192.587 169.007 191.339C169.818 190.491 170.688 190.04 171.586 189.999C172.627 189.947 173.616 190.321 174.562 191.1C175.509 191.889 176.004 192.807 176.056 193.843C176.096 194.696 175.868 195.535 175.364 196.372C174.494 197.982 172.972 199.508 170.791 200.972C168.61 202.436 165.708 203.258 162.075 203.459C158.022 203.647 154.528 203.048 151.62 201.617ZM168.077 180.888C168.485 180.87 168.745 180.787 168.848 180.639C168.95 180.491 168.993 180.228 168.977 179.85C168.877 178.005 167.953 176.51 166.171 175.358C164.401 174.215 162.255 173.706 159.745 173.85C157.735 173.959 156.018 174.459 154.586 175.35C153.153 176.242 152.09 177.291 151.386 178.5C150.682 179.708 150.362 180.835 150.435 181.87C157.484 181.45 161.014 181.255 168.077 180.888Z" fill="white"/>
<path d="M217.235 193.717C217.722 194.224 217.982 195.148 218.014 196.478C218.042 197.613 217.784 198.595 217.247 199.413C216.7 200.231 215.962 200.651 215.021 200.674C213.089 200.724 211.598 200.504 210.551 200.036C209.504 199.568 208.53 198.683 207.628 197.371C206.686 198.965 205.372 200.097 203.69 200.789C202.008 201.482 200.016 201.86 197.727 201.935C192.648 202.108 188.73 200.716 185.939 197.739C183.148 194.762 181.621 190.538 181.368 185.043C181.207 181.447 181.757 178.214 183.052 175.361C184.337 172.508 186.216 170.253 188.69 168.585C191.165 166.926 194.053 166.041 197.353 165.928C198.999 165.877 200.545 166.158 201.992 166.782C203.429 167.406 204.533 168.249 205.306 169.321C205.351 168.95 205.369 168.764 205.414 168.393C205.48 167.727 205.83 167.161 206.462 166.694C207.085 166.228 208.092 165.973 209.462 165.942C210.924 165.904 212.009 166.185 212.717 166.785C213.425 167.385 213.787 168.161 213.812 169.101C213.826 169.436 213.803 169.698 213.765 169.884C213.531 171.504 213.354 174.224 213.169 178.006C213.087 179.755 213.083 182.019 213.153 184.765C213.192 186.192 213.211 186.895 213.25 188.322C213.285 189.695 213.431 190.746 213.677 191.476C213.923 192.206 214.435 192.636 215.201 192.755C216.071 192.889 216.748 193.199 217.235 193.717ZM203.506 179.119C203.454 177.509 202.891 176.206 201.838 175.219C200.775 174.232 199.452 173.762 197.857 173.809C195.803 173.878 194.155 174.915 192.914 176.93C191.673 178.945 191.115 181.486 191.24 184.575C191.354 187.513 192.04 189.837 193.288 191.547C194.535 193.257 196.139 194.075 198.132 194.011C199.981 193.946 201.389 193.424 202.342 192.415C203.307 191.415 203.779 189.985 203.752 188.135C203.729 186.209 203.65 183.203 203.506 179.119Z" fill="white"/>
<path d="M228.079 198.748C225.617 197.242 223.836 195.223 222.735 192.68C222.449 191.974 222.295 191.378 222.283 190.914C222.264 189.918 222.729 188.965 223.709 188.04C224.679 187.127 225.762 186.65 226.939 186.633C227.614 186.618 228.168 186.773 228.578 187.07C228.989 187.376 229.316 187.657 229.549 187.911C229.782 188.165 229.917 188.34 229.965 188.434C231.306 190.029 232.41 191.154 233.285 191.807C234.151 192.461 235.197 192.777 236.416 192.767C237.541 192.753 238.507 192.501 239.322 191.999C240.127 191.499 240.527 190.788 240.515 189.89C240.496 188.895 240.011 188.117 239.06 187.555C238.099 186.995 236.52 186.391 234.411 185.684C232.061 184.896 230.109 184.081 228.623 183.341C227.137 182.6 225.82 181.502 224.671 180.023C223.522 178.544 222.917 176.648 222.866 174.323C222.815 171.998 223.401 169.986 224.643 168.285C225.886 166.583 227.565 165.263 229.682 164.334C231.798 163.405 234.09 162.93 236.567 162.907C239.229 162.882 241.538 163.38 243.504 164.39C245.46 165.4 246.958 166.746 247.978 168.429C248.997 170.112 249.522 171.894 249.533 173.789C249.541 175.066 249.21 176.043 248.54 176.707C247.859 177.373 246.725 177.702 245.138 177.716C243.725 177.718 242.757 177.494 242.232 177.021C241.707 176.549 241.341 175.871 241.211 175.035C241.037 173.878 240.692 172.906 240.11 172.2C239.527 171.493 238.397 171.15 236.708 171.161C235.428 171.175 234.442 171.418 233.738 171.901C233.034 172.384 232.702 173.046 232.711 173.901C232.733 174.939 233.23 175.749 234.222 176.296C235.214 176.855 236.832 177.434 238.999 178.105C241.313 178.808 243.252 179.581 244.758 180.309C246.263 181.037 247.569 182.126 248.674 183.564C249.779 185.003 250.334 186.913 250.357 189.284C250.384 191.989 249.68 194.216 248.257 195.973C246.834 197.731 245.049 198.993 242.9 199.762C240.752 200.531 238.599 200.931 236.439 200.953C233.316 200.978 230.541 200.253 228.079 198.748Z" fill="white"/>
<path d="M285.585 193.226C285.847 194.183 286.126 194.943 286.443 195.516C286.749 196.09 286.906 196.426 286.903 196.523C286.894 197.705 286.461 198.688 285.624 199.451C284.786 200.214 283.665 200.585 282.271 200.564C281.419 200.549 280.493 200.051 279.481 199.06C278.479 198.07 277.819 196.99 277.51 195.798C275.909 198.955 272.965 200.494 268.649 200.451C264.693 200.416 261.618 198.932 259.423 195.978C257.228 193.035 256.104 189.28 256.081 184.733C256.038 178.021 256.027 174.664 255.985 167.952C255.98 166.858 256.44 165.97 257.375 165.287C258.31 164.604 259.464 164.263 260.838 164.274C262.211 164.286 263.393 164.636 264.384 165.324C265.365 166.014 265.858 166.91 265.863 168.004C265.86 174.654 265.87 177.989 265.867 184.639C265.867 186.676 266.21 188.503 266.888 190.124C267.565 191.744 268.606 192.559 270 192.569C271.763 192.586 273.058 191.78 273.905 190.128C274.751 188.476 275.181 185.565 275.195 181.394C275.224 176.128 275.234 173.507 275.252 168.242C275.255 166.964 275.705 165.946 276.606 165.201C277.506 164.455 278.689 164.09 280.155 164.117C281.673 164.14 282.89 164.542 283.825 165.32C284.761 166.099 285.213 167.129 285.2 168.408C285.195 176.77 285.202 180.95 285.197 189.311C285.201 190.968 285.324 192.281 285.585 193.226Z" fill="white"/>
<path d="M318.11 165.918C319.641 166.85 320.849 168.151 321.713 169.801C322.577 171.452 322.976 173.341 322.921 175.467C322.831 178.55 321.787 180.887 319.81 182.488C317.833 184.089 315.325 184.84 312.285 184.729C310.693 184.668 309.587 184.388 308.967 183.869C308.347 183.349 308.041 182.504 308.07 181.311C308.092 180.172 308.344 179.385 308.805 178.952C309.266 178.519 309.915 178.268 310.739 178.199C313.419 177.999 314.806 176.894 314.858 174.865C314.88 174.008 314.701 173.36 314.33 172.888C313.949 172.427 313.42 172.183 312.742 172.155C311.509 172.112 310.349 172.8 309.27 174.208C308.191 175.616 307.284 177.272 306.567 179.164C305.84 181.067 305.39 182.68 305.165 183.996C304.819 186.056 304.568 189.767 304.46 195.071C304.404 197.631 304.024 199.358 303.309 200.264C302.595 201.17 301.365 201.592 299.609 201.542C297.988 201.494 296.774 201.136 295.947 200.446C295.12 199.757 294.7 198.736 294.674 197.352C294.695 196.04 294.7 195.39 294.72 194.078C294.775 190.781 294.792 189.134 294.847 185.838C294.889 182.802 294.862 180.237 294.755 178.122C294.647 176.007 294.466 173.29 294.19 169.963C294.098 168.8 294.056 168.207 293.964 167.044C293.891 165.857 294.285 164.898 295.144 164.155C296.004 163.423 297.188 163.069 298.707 163.114C301.273 163.182 302.63 164.419 302.765 166.781C302.836 167.925 302.898 169.534 302.942 171.621C303.904 169.42 305.223 167.648 306.931 166.304C308.629 164.961 310.675 164.329 313.067 164.41C314.895 164.476 316.579 164.975 318.11 165.918Z" fill="white"/>
<path d="M334.365 200.525C331.61 198.781 329.582 196.454 328.281 193.546C326.98 190.637 326.372 187.387 326.488 183.794C326.604 180.201 327.517 177.018 329.229 174.276C330.941 171.535 333.242 169.445 336.113 168.019C338.983 166.593 342.166 165.979 345.652 166.167C348.768 166.337 351.59 167.146 354.119 168.582C356.648 170.017 358.589 171.982 359.952 174.464C361.315 176.945 361.915 179.795 361.752 183.012C361.649 185.045 361.218 186.483 360.477 187.304C359.726 188.137 358.522 188.492 356.845 188.394C348.069 187.842 343.678 187.599 334.889 187.167C334.847 188.307 335.195 189.474 335.915 190.669C336.644 191.863 337.752 192.911 339.258 193.791C340.765 194.67 342.572 195.171 344.691 195.293C346.583 195.398 348.084 195.184 349.194 194.662C350.305 194.14 351.476 193.31 352.708 192.194C353.608 191.438 354.505 191.093 355.41 191.148C356.45 191.216 357.405 191.69 358.266 192.572C359.127 193.453 359.533 194.421 359.484 195.465C359.441 196.312 359.13 197.125 358.548 197.891C357.527 199.393 355.851 200.746 353.539 201.959C351.228 203.172 348.251 203.674 344.621 203.464C340.529 203.254 337.111 202.282 334.365 200.525ZM352.782 181.748C353.194 181.773 353.456 181.712 353.58 181.584C353.703 181.445 353.767 181.191 353.781 180.811C353.866 178.964 353.089 177.373 351.428 176.049C349.777 174.714 347.687 173.984 345.178 173.846C343.173 173.738 341.402 174.047 339.896 174.771C338.38 175.495 337.216 176.421 336.405 177.551C335.582 178.67 335.156 179.751 335.117 180.793C342.188 181.129 345.715 181.325 352.782 181.748Z" fill="white"/>
<path d="M370.752 202.751C368.409 201.042 366.792 198.882 365.89 196.248C365.654 195.518 365.55 194.918 365.579 194.451C365.632 193.461 366.182 192.545 367.22 191.714C368.267 190.882 369.378 190.512 370.552 190.591C371.231 190.641 371.767 190.831 372.16 191.171C372.552 191.512 372.85 191.816 373.065 192.093C373.279 192.371 373.405 192.557 373.442 192.652C374.658 194.353 375.676 195.57 376.495 196.292C377.314 197.014 378.326 197.431 379.551 197.518C380.674 197.601 381.666 197.434 382.506 196.996C383.346 196.557 383.801 195.897 383.85 194.995C383.914 194.005 383.488 193.19 382.571 192.54C381.655 191.9 380.128 191.152 378.078 190.267C375.786 189.281 373.904 188.298 372.481 187.434C371.047 186.571 369.825 185.357 368.793 183.794C367.761 182.232 367.306 180.282 367.43 177.966C367.554 175.65 368.297 173.692 369.67 172.101C371.043 170.509 372.815 169.345 374.996 168.596C377.177 167.857 379.502 167.574 381.985 167.768C384.642 167.971 386.913 168.666 388.788 169.834C390.664 171.013 392.057 172.474 392.94 174.242C393.832 175.999 394.207 177.836 394.083 179.718C393.999 180.991 393.594 181.929 392.858 182.534C392.132 183.137 390.97 183.37 389.384 183.244C387.972 183.127 387.029 182.814 386.531 182.297C386.044 181.779 385.728 181.075 385.669 180.234C385.587 179.071 385.312 178.072 384.788 177.318C384.263 176.564 383.157 176.122 381.468 175.992C380.191 175.898 379.178 176.056 378.449 176.475C377.71 176.896 377.325 177.529 377.272 178.378C377.212 179.422 377.65 180.257 378.596 180.895C379.543 181.532 381.11 182.256 383.228 183.103C385.484 184.006 387.362 184.935 388.806 185.797C390.259 186.648 391.48 187.851 392.469 189.373C393.457 190.907 393.871 192.849 393.71 195.221C393.53 197.909 392.648 200.072 391.093 201.698C389.538 203.324 387.659 204.431 385.447 205.02C383.244 205.597 381.068 205.815 378.905 205.654C375.807 205.438 373.095 204.46 370.752 202.751Z" fill="white"/>
</svg>
