<svg width="88" height="62" viewBox="0 0 88 62" fill="none" xmlns="http://www.w3.org/2000/svg">
<g clip-path="url(#clip0)">
<path fill-rule="evenodd" clip-rule="evenodd" d="M88.0002 19.0626C86.9419 21.5514 84.8857 23.4653 82.5876 24.9253C80.8264 26.0377 79.6358 24.8752 78.4971 23.7632C78.1646 23.4386 77.8366 23.1182 77.5 22.8601C59.6219 9.18319 40.4283 7.66269 20.1235 16.6268C16.4421 18.2532 13.0327 20.4999 10.1223 23.2686C6.63097 26.589 5.4281 25.3837 3.03498 22.9859C2.60932 22.5594 2.14601 22.0951 1.62547 21.6119C-1.42856 18.7828 0.35548 16.9597 2.62333 14.8945C24.2964 -4.87952 63.5906 -4.99299 85.0898 14.713C85.2844 14.8915 85.4865 15.0656 85.6894 15.2404L85.6896 15.2405C86.8105 16.2061 87.9554 17.1924 88.0002 19.0626ZM44.0567 22.3913C53.2037 21.9903 61.4133 24.7061 68.746 30.0543C69.0477 30.2744 69.3751 30.4888 69.7068 30.706L69.707 30.7062C71.6441 31.9747 73.7272 33.339 71.6942 36.4842C68.9879 40.6826 66.2513 41.598 62.585 39.2832C59.599 37.3996 56.6054 35.5916 53.181 34.6082C43.399 31.7941 34.2747 33.2012 25.9517 39.0562C23.4117 40.8415 21.4462 41.6736 18.7551 39.0865C14.2723 34.7671 14.1438 33.6551 19.3372 29.9635C26.7152 24.6985 34.9173 21.9752 44.0567 22.3913ZM35.076 53.7998C35.3557 58.4975 39.3169 62.0831 44.155 61.9999C49.3635 61.9092 53.1054 57.8923 52.8181 52.6954C52.5611 48.0356 48.4639 44.2305 43.8148 44.3137C38.9465 44.4045 34.7888 48.9206 35.076 53.7998Z" fill="#03C4F9"/>
</g>
<defs>
<clipPath id="clip0">
<rect width="88" height="62" fill="white"/>
</clipPath>
</defs>
</svg>
