<svg width="82" height="72" viewBox="0 0 82 72" fill="none" xmlns="http://www.w3.org/2000/svg">
<g clip-path="url(#clip0)">
<path d="M-6.58825e-05 22.9653C-0.0174094 13.7566 3.98026 6.72182 12.0537 2.45225C19.971 -1.73905 27.7062 -0.278181 34.843 4.72182C41.0086 9.03486 40.9566 9.10443 46.4631 5.00008C55.7246 -1.90427 67.0325 -1.42601 74.8544 6.20008C83.1446 14.287 84.6535 27.4262 77.0917 36.0957C67.0325 47.6001 56.1668 58.4175 45.4572 69.3305C41.8845 72.974 39.6211 72.8696 35.901 69.087C25.5816 58.5914 15.4183 47.9392 5.2897 37.2523C1.56085 33.3044 -0.00873763 28.3827 -6.58825e-05 22.9653Z" fill="#8CE3B6"/>
</g>
<defs>
<clipPath id="clip0">
<rect width="82" height="72" fill="white"/>
</clipPath>
</defs>
</svg>
