<svg width="74" height="74" viewBox="0 0 74 74" fill="none" xmlns="http://www.w3.org/2000/svg">
<g clip-path="url(#clip0)">
<path fill-rule="evenodd" clip-rule="evenodd" d="M73.9835 37.2653C74.56 16.0983 55.6877 -1.22303 37.3118 0.128565C18.3674 -1.75402 -0.504924 17.3534 0.00751946 36.7826C0.559997 57.3221 16.9181 74.201 37.1757 73.9998C57.3691 73.8068 73.439 57.4106 73.9835 37.2653ZM36.6792 7.56235C55.0071 7.26468 66.6972 23.331 65.8164 36.4769C65.8965 52.8489 53.3897 65.8742 37.3758 66.0994C21.4341 66.3247 8.70304 53.3397 8.10252 37.1849C7.59808 23.7815 18.3114 7.86003 36.6792 7.56235ZM19.9053 51.1758C24.4932 56.188 30.3223 58.2154 36.8559 58.4165C43.2695 58.2798 48.9143 56.4535 53.4703 51.8677C55.416 49.9047 57.2896 47.7405 54.7354 45.0534C52.5575 42.7766 50.4036 43.9271 48.514 45.7131C44.6146 49.4059 40.0827 50.9023 34.7181 50.3793C30.8032 49.9931 28.0414 47.7221 25.2426 45.4208L25.2426 45.4208L25.0697 45.2787C23.2281 43.7662 21.3145 43.1065 19.4168 44.9247C17.1429 47.1049 18.1117 49.2128 19.9053 51.1758ZM40.8033 33.5246C39.6183 28.4561 41.7641 25.2863 44.9109 22.6394C47.1848 20.7327 49.8992 20.6924 52.3413 22.2773C55.3999 24.2565 57.2736 27.193 57.2575 30.9099C57.2495 32.5833 55.6882 33.1867 54.4471 32.1247C53.8697 31.6309 53.379 31.009 52.8906 30.3901C51.6046 28.7603 50.3342 27.1504 47.5371 27.9492C46.236 28.3244 45.4838 29.3028 44.6672 30.3649C43.7501 31.5578 42.7517 32.8564 40.8033 33.5246ZM30.5913 32.0487C31.1283 32.7216 31.6462 33.3706 32.7324 33.106C33.6532 27.2732 31.131 22.4059 26.6791 21.4163C22.4755 20.4831 18.7282 23.5242 17.1989 29.0915C17.1675 29.2057 17.1342 29.3205 17.1009 29.4353C16.7617 30.606 16.421 31.7817 17.9596 32.4705C18.9803 32.9284 19.5636 32.3003 20.1426 31.6767C20.2858 31.5225 20.4287 31.3686 20.5778 31.2315L20.5789 31.2305C25.6783 26.525 25.6866 26.5173 30.2342 31.6177C30.3581 31.7565 30.4751 31.9031 30.5913 32.0487Z" fill="#FF8F91"/>
</g>
<defs>
<clipPath id="clip0">
<rect width="74" height="74" fill="white"/>
</clipPath>
</defs>
</svg>
