<svg width="88" height="78" viewBox="0 0 88 78" fill="none" xmlns="http://www.w3.org/2000/svg">
<path fill-rule="evenodd" clip-rule="evenodd" d="M40.9324 46.7374C40.9428 44.1777 40.9531 41.6177 40.9531 39.0577C40.9508 36.5644 40.943 34.0704 40.9352 31.5762C40.9143 24.9236 40.8934 18.2689 40.978 11.6187C41.0444 6.70931 39.4589 2.90852 34.8518 0.841424C30.7843 -0.983957 27.3643 0.107937 23.2885 4.63388C23.0308 4.91968 22.7914 5.22069 22.5537 5.51949C21.7654 6.51043 20.9965 7.47715 19.6444 7.78454C14.5766 8.94103 13.2519 12.722 11.7611 16.9769C11.6402 17.3219 11.5183 17.6699 11.3932 18.02C10.7913 19.7074 9.56414 21.1002 8.31759 22.515C6.50385 24.5736 4.64905 26.6788 4.61953 29.8058C4.60293 30.9144 4.58632 32.0396 4.80215 33.1148C5.1674 34.8902 4.56972 36.1988 3.61511 37.6991C-1.5738 45.8334 -0.69737 47.4138 3.2172 54.4725C3.59863 55.1603 4.00889 55.9001 4.44521 56.7031C8.67872 64.488 13.6095 69.6391 21.1053 73.9233C21.6481 74.2341 22.1786 74.5492 22.7009 74.8594C26.5639 77.1537 29.9764 79.1805 34.5613 77.1907C39.8573 74.8819 41.0942 70.2476 40.9946 64.8298C40.8838 58.8021 40.9081 52.7704 40.9324 46.7374ZM84.1127 54.3397C85.3353 51.7666 86.5586 49.1922 88 46.7731C87.8324 43.9304 87.38 41.3039 85.5786 39.5334C83.4884 37.4839 83.1829 35.0977 82.8692 32.6476C82.7503 31.7194 82.6303 30.7819 82.4116 29.8501C80.9862 23.7437 77.4363 18.5868 73.8969 13.4451C72.8594 11.938 71.8229 10.4323 70.8411 8.90428C70.707 8.69648 70.3886 8.53855 70.1289 8.48868C67.3433 7.98918 65.6192 6.17333 63.8533 4.31347C63.3566 3.79029 62.8565 3.26364 62.3286 2.76182C56.6229 -2.64919 47.8424 0.318137 46.2086 7.94841C46.0029 8.91576 46.005 9.93807 46.0071 10.9466C46.0073 11.0473 46.0075 11.1479 46.0075 11.2482V11.2532C45.9991 29.4877 45.9907 47.714 46.0243 65.9402C46.0326 67.3116 46.1164 68.733 46.5102 70.0296C48.6132 76.8952 57.0418 80.4859 62.5297 76.0391C64.4374 74.4928 66.6244 73.4206 68.7524 72.3772C71.0169 71.267 73.2147 70.1895 74.9381 68.6083C79.1837 64.7131 81.647 59.529 84.1127 54.3397Z" fill="#8CE3B6"/>
</svg>
