<svg width="136" height="100" viewBox="0 0 136 100" fill="none" xmlns="http://www.w3.org/2000/svg">
<path d="M47.843 17.2715L62.3705 24.1718C63.0343 24.4864 63.7733 24.6531 64.5095 24.6531C65.2528 24.6531 65.9991 24.4835 66.6687 24.1617L81.1152 17.2227C81.578 17.0014 81.9294 16.5934 82.0813 16.1064C82.2331 15.6194 82.1753 15.0849 81.9193 14.6424C81.4305 13.7934 80.8708 12.9687 80.2561 12.1944C79.8136 11.6355 79.3407 11.1011 78.8533 10.604C75.041 6.72069 69.9401 4.58295 64.4878 4.58295C59.0297 4.58295 53.923 6.72644 50.1093 10.6169C49.5901 11.147 49.0926 11.7145 48.6312 12.305C48.0383 13.0635 47.4988 13.8666 47.0259 14.6927C46.7728 15.1352 46.7149 15.6696 46.8697 16.1567C47.0244 16.6451 47.3788 17.0517 47.843 17.2715ZM68.6747 19.7426C68.0238 20.2526 67.0361 20.1851 66.3288 19.5817C65.5421 18.9122 65.1487 18.7987 64.5615 18.7987C63.8066 18.7987 63.4928 18.8418 62.4659 19.6951C61.7992 20.2483 60.7464 20.2152 60.1187 19.6291C59.7615 19.2958 59.5749 18.8389 59.5923 18.3433C59.6125 17.7801 59.8859 17.2442 60.3443 16.8721C61.8137 15.6826 62.8781 15.2803 64.5601 15.2803C66.1495 15.2803 67.3282 15.7688 68.7643 17.0244C69.1606 17.3706 69.379 17.8692 69.3645 18.395C69.3515 18.9265 69.1056 19.4049 68.6747 19.7426ZM52.6503 13.6684C55.5905 10.1486 59.9133 8.13005 64.5124 8.13005C69.1273 8.13005 73.4603 10.1601 76.4005 13.6985C76.7374 14.1037 76.8734 14.6324 76.7736 15.1496C76.6723 15.6739 76.3513 16.1078 75.8697 16.3707C75.1466 16.7658 74.1819 16.5402 73.5817 15.8334C71.3213 13.1727 68.0152 11.647 64.5124 11.647C60.93 11.647 57.5762 13.2316 55.31 15.9914C54.9715 16.4038 54.4711 16.6394 53.936 16.6394C53.4588 16.6394 53.0075 16.4497 52.6662 16.1078C52.0834 15.5202 52.0747 14.3565 52.6503 13.6684Z" fill="#FF8F91"/>
<path d="M83.9079 22.4463C83.837 21.83 83.4827 21.3056 82.936 21.0039C82.3894 20.7037 81.7545 20.685 81.1904 20.9522L66.9753 27.772C65.182 28.4975 63.1023 28.2547 61.9337 27.7232L47.7852 21.0097C47.2298 20.7425 46.5732 20.7611 46.0338 21.0571C45.4857 21.3588 45.1313 21.8846 45.0619 22.5024C44.9809 23.2207 44.9404 23.9534 44.9404 24.6818C44.9404 29.621 46.7974 34.3189 50.1715 37.9105L50.3089 38.0542C50.494 38.2481 50.6863 38.4349 50.8816 38.6217L50.9206 38.659C51.0204 38.7553 51.1202 38.8501 51.2215 38.9435C51.2706 38.988 51.3212 39.0326 51.3719 39.0757L51.4644 39.1561C55.0627 42.3153 59.6863 44.0565 64.4864 44.0565C68.9986 44.0565 73.4082 42.4992 76.9038 39.669C77.0325 39.5627 77.1612 39.4564 77.287 39.3472L77.368 39.2768C77.4461 39.2093 77.5242 39.1432 77.6038 39.0728C81.6894 35.3921 84.0323 30.1468 84.0323 24.6803C84.0352 23.9362 83.9918 23.1833 83.9079 22.4463ZM57.1568 30.5606L56.2847 31.4039C56.211 31.4757 56.1777 31.5777 56.1951 31.6783L56.1965 31.684L56.4019 32.8707C56.4366 33.0719 56.2761 33.2342 56.0938 33.2342C56.0461 33.2342 55.9955 33.2227 55.9478 33.1983L54.8703 32.6351C54.824 32.6107 54.7749 32.5992 54.7242 32.5992C54.6751 32.5992 54.6245 32.6107 54.5796 32.6351L53.5022 33.1983C53.4544 33.2227 53.4053 33.2342 53.3575 33.2342C53.1753 33.2342 53.0148 33.0719 53.0495 32.8707L53.2534 31.684L53.2549 31.6783C53.2722 31.5777 53.239 31.4743 53.1652 31.4039L52.2931 30.5606C52.108 30.381 52.2107 30.0678 52.4667 30.0319L53.6714 29.8581C53.7726 29.8437 53.8608 29.7805 53.9071 29.6885L54.4451 28.6039C54.503 28.4889 54.6143 28.4315 54.7257 28.4315C54.837 28.4315 54.9484 28.4889 55.0063 28.6039L55.5443 29.6885C55.5891 29.7805 55.6773 29.8437 55.78 29.8581L56.9847 30.0319C57.2407 30.0678 57.3434 30.381 57.1568 30.5606ZM68.9176 34.6522L67.4598 36.063C67.3369 36.1822 67.2805 36.3546 67.3094 36.5227L67.3109 36.5313L67.6536 38.5154C67.7115 38.8501 67.4439 39.1231 67.1388 39.1231C67.0578 39.1231 66.9753 39.1044 66.8958 39.0627L65.0938 38.1217C65.0171 38.0815 64.9347 38.0628 64.8508 38.0628C64.7669 38.0628 64.6845 38.0829 64.6078 38.1217L62.8058 39.0627C62.7263 39.1044 62.6424 39.1231 62.5629 39.1231C62.2577 39.1231 61.9902 38.8501 62.048 38.5154L62.3908 36.5313L62.3922 36.5227C62.4211 36.3546 62.3647 36.1822 62.2418 36.063L60.784 34.6522C60.4745 34.3519 60.6452 33.829 61.0732 33.7672L63.0878 33.477C63.2585 33.4526 63.4046 33.3463 63.4812 33.1925L64.3822 31.3795C64.4777 31.187 64.6642 31.0907 64.8508 31.0907C65.0374 31.0907 65.2239 31.187 65.3194 31.3795L66.2204 33.1925C66.2971 33.3463 66.4431 33.4526 66.6138 33.477L68.6284 33.7672C69.0565 33.829 69.2271 34.3519 68.9176 34.6522ZM77.6428 30.5606L76.7707 31.4039C76.697 31.4757 76.6637 31.5777 76.6811 31.6783L76.6825 31.684L76.8879 32.8707C76.9226 33.0719 76.762 33.2342 76.5798 33.2342C76.5321 33.2342 76.4815 33.2227 76.4337 33.1983L75.3563 32.6351C75.3115 32.6107 75.2608 32.5992 75.2102 32.5992C75.1611 32.5992 75.1104 32.6107 75.0656 32.6351L73.9882 33.1983C73.9404 33.2227 73.8913 33.2342 73.8435 33.2342C73.6613 33.2342 73.5008 33.0719 73.5355 32.8707L73.7409 31.684L73.7423 31.6783C73.7597 31.5777 73.7264 31.4743 73.6526 31.4039L72.7805 30.5606C72.5954 30.381 72.6981 30.0678 72.9541 30.0319L74.1588 29.8581C74.2601 29.8437 74.3483 29.7805 74.3946 29.6885L74.9326 28.6039C74.9904 28.4889 75.1018 28.4315 75.2131 28.4315C75.3245 28.4315 75.4358 28.4889 75.4937 28.6039L76.0317 29.6885C76.0765 29.7805 76.1647 29.8437 76.2674 29.8581L77.4721 30.0319C77.7252 30.0678 77.8279 30.381 77.6428 30.5606Z" fill="#02C5FB"/>
<path d="M64.4892 1.56596C77.1409 1.56596 87.3962 11.7533 87.3962 24.3212C87.3962 36.8891 77.1409 47.0764 64.4892 47.0764C51.8375 47.0764 41.5823 36.8891 41.5823 24.3212C41.5823 11.7533 51.8375 1.56596 64.4892 1.56596ZM64.4892 0C50.9886 0 40.0059 10.91 40.0059 24.3212C40.0059 37.7324 50.9886 48.6424 64.4892 48.6424C77.9899 48.6424 88.9726 37.7324 88.9726 24.3212C88.9726 10.91 77.9884 0 64.4892 0Z" fill="#8CE3B6"/>
<path d="M115.008 64.4916C114.597 64.2071 114.084 64.0419 113.495 64.0419C113.222 64.0419 112.934 64.0749 112.642 64.1425L112.361 64.2085C111.551 64.3996 110.968 64.493 110.581 64.493C110.002 64.493 109.529 64.3694 109.151 64.1396C108.446 63.71 108.083 62.8897 108.083 61.6714V55.1361H112.734C113.167 55.1361 113.604 55.0297 113.997 54.8286C114.502 54.57 114.918 54.1606 115.171 53.675C115.349 53.3316 115.439 52.9724 115.439 52.6047C115.439 51.6881 115.005 50.9123 114.322 50.4411C113.881 50.1379 113.339 49.9583 112.736 49.9583H108.328H108.085V47.3652C108.085 46.3509 107.571 45.4343 106.805 44.8826C106.33 44.5407 105.761 44.3381 105.153 44.3381C104.617 44.3381 104.125 44.4775 103.703 44.7232C102.826 45.2317 102.258 46.2015 102.258 47.3666V53.2698C104.787 54.9766 106.064 57.3586 106.27 60.7563L106.74 69.3432C107.589 69.6391 108.53 69.7885 109.544 69.7885C111.336 69.7885 112.818 69.5788 113.951 69.1664C114.147 69.0946 114.338 69.0185 114.512 68.9351C115.526 68.4481 116.019 67.6608 116.019 66.5302C116.017 65.6423 115.634 64.9254 115.008 64.4916Z" fill="#FDD866"/>
<path d="M70.306 57.5051C70.1325 57.3887 69.9546 57.2767 69.7666 57.1747C69.7246 57.1517 69.6798 57.1316 69.6364 57.1115L69.5337 57.0641C69.4571 57.0267 69.379 56.9908 69.2994 56.9563C68.2278 56.4779 66.9233 56.2035 65.4221 56.1417C63.7531 56.0742 62.1029 56.4276 60.5077 57.1819C60.4108 57.2278 60.3139 57.2767 60.2185 57.3255C60.1129 57.3772 60.0073 57.429 59.9032 57.485C59.6602 57.6172 59.4187 57.7565 59.1801 57.9074L58.9993 58.0209L58.8518 57.8686C58.5307 57.5396 58.1894 57.2523 57.8293 56.998C56.6579 56.169 55.281 55.7265 53.6511 55.659C52.1904 55.6001 50.8049 55.7596 49.5207 56.1417C49.5236 56.1532 49.5236 56.1633 49.5265 56.1748C49.6581 56.8083 49.7289 57.4491 49.7333 58.0826C49.7839 60.0868 49.6306 62.0852 49.2763 64.0146C48.8554 66.6279 47.5466 68.7469 45.3844 70.3072C45.2485 70.4049 45.1096 70.4954 44.9694 70.5844L44.8623 73.1431C44.8291 73.9347 45.1125 74.6976 45.6592 75.2938C46.19 75.8713 46.9218 76.2219 47.668 76.252C47.7114 76.2535 47.7534 76.2549 47.7953 76.2549C49.3963 76.2549 50.656 75.0208 50.7239 73.3845L51.1954 62.0837L51.3169 62.0119C52.1253 61.5349 52.9584 61.3051 53.7625 61.3424C54.9701 61.3927 56.3889 61.9674 56.2862 64.4255L55.9044 73.5971C55.8364 75.2177 57.1047 76.6399 58.6725 76.7046L58.7997 76.7075C60.4007 76.7075 61.6604 75.4734 61.7284 73.837L62.1941 62.6684L62.2924 62.5937C62.9938 62.0607 63.7733 61.7907 64.6078 61.7907C64.6613 61.7907 64.7148 61.7921 64.7669 61.7935C66.5978 61.8682 67.3759 62.8437 67.2877 64.9527L66.9088 74.0496C66.8755 74.8441 67.1518 75.6084 67.6883 76.2018C68.2176 76.7865 68.9234 77.127 69.6769 77.1571C71.3574 77.2232 72.6619 75.9992 72.7328 74.2896L73.1247 64.8881C73.2708 61.3051 72.3466 58.8843 70.306 57.5051Z" fill="#FDD866"/>
<path d="M132.674 58.9374V58.9317C132.486 56.6647 131.535 54.8717 129.767 53.4523C129.566 53.2828 129.356 53.1247 129.142 52.9739C127.545 51.8562 125.602 51.2901 123.348 51.2901C121.503 51.2901 119.847 51.6823 118.417 52.4538C118.224 52.5572 118.033 52.6679 117.85 52.7857L117.692 52.8819C117.652 52.9064 117.608 52.9336 117.569 52.9566C117.569 53.1563 117.556 53.3 117.504 53.5184C117.286 54.3588 116.876 55.0915 116.289 55.6992C115.977 56.0225 115.624 56.2825 115.231 56.498C115.213 56.5081 115.196 56.5167 115.178 56.5267C115.099 56.5684 115.021 56.6115 114.938 56.6503C114.791 56.7178 114.64 56.781 114.483 56.8356C114.481 56.8399 114.48 56.8442 114.478 56.8485C114.231 57.5281 114.082 58.2105 114.021 58.9288C113.925 59.8684 113.88 60.8381 113.886 61.8194C115.248 61.9099 116.526 62.4659 117.268 63.2991C118.016 63.9298 118.443 64.8866 118.443 65.9699C118.443 66.2098 118.422 66.4483 118.38 66.6983C118.38 66.7356 118.376 66.7988 118.365 66.8621C118.172 67.9568 117.597 69.1305 116.84 69.9868C116.871 70.0141 116.902 70.0428 116.934 70.0701C118.687 71.5527 120.845 72.3041 123.348 72.3041C125.873 72.3041 128.033 71.5657 129.764 70.1075C131.508 68.6335 132.489 66.7371 132.675 64.4715C132.865 62.6526 132.865 60.7922 132.674 58.9374ZM126.883 63.4313C126.851 64.8881 126.113 65.9685 124.912 66.4569C124.453 66.6437 123.928 66.7457 123.347 66.7457C122.608 66.7457 121.957 66.5704 121.418 66.25C120.499 65.7041 119.906 64.7315 119.775 63.4514C119.657 62.3308 119.657 61.1556 119.775 59.9589C119.984 57.995 121.352 56.7767 123.347 56.7767C125.4 56.7767 126.756 57.9993 126.883 59.9675C126.92 61.16 126.92 62.3222 126.883 63.4313Z" fill="#FF8F91"/>
<path d="M88.3912 54.537L88.3449 54.4292C88.3204 54.3675 88.2929 54.3071 88.2654 54.2468L88.2437 54.1979C87.9545 53.5486 87.5958 52.961 87.1778 52.4524C86.6471 51.8073 86.0339 51.2614 85.3469 50.8103C84.1451 50.0216 82.7089 49.5274 81.0501 49.342C79.0774 49.1222 77.2971 49.4009 75.7236 50.1537C75.592 50.217 75.459 50.2787 75.3302 50.3477C75.2941 50.3664 75.2579 50.385 75.2232 50.4037C74.9933 50.533 74.7662 50.6709 74.5464 50.8218C72.9743 51.9208 71.8853 53.5026 71.3097 55.5225C72.0632 55.9363 72.7082 56.452 73.2289 57.0569C74.6534 58.7148 75.2825 61.0364 75.1524 64.1525L74.9499 69.0056C76.1011 69.6391 77.4229 70.0428 78.8836 70.2066C81.0226 70.4451 82.868 70.3402 84.3374 69.8862C84.3851 69.8719 84.4285 69.8546 84.4734 69.8374L84.5862 69.7957C84.67 69.767 84.7539 69.7368 84.8349 69.7052C84.8812 69.688 84.9275 69.6707 84.9752 69.6549C85.0302 69.6363 85.0851 69.6176 85.1357 69.5946C86.3621 69.0458 87.0115 68.3117 87.12 67.3491C87.2169 66.49 86.9291 65.7717 86.2392 65.1539C86.1611 65.0835 86.0772 65.0275 85.9948 64.97C85.6303 64.7186 85.2254 64.5893 84.764 64.5893C84.6903 64.5965 84.6628 64.6008 84.6353 64.6022C84.5572 64.6051 84.4762 64.6137 84.3953 64.6238C84.3128 64.6338 84.2333 64.6439 84.1523 64.6597C83.9975 64.6913 83.8399 64.7258 83.675 64.7789C82.1854 65.2659 80.8259 65.4455 79.669 65.3177C78.7896 65.22 78.0419 64.9772 77.4519 64.6223C76.4106 63.9945 75.8682 63.0133 76.0013 61.8366L76.0577 61.3496L85.9254 62.4127C87.577 62.5952 88.6082 61.7217 88.7947 60.0696L88.8931 59.1946C89.084 57.5109 88.9321 55.9866 88.4433 54.6605C88.4274 54.6174 88.4086 54.5772 88.3912 54.537ZM83.8327 57.8988C83.7849 58.314 83.5781 58.4677 83.3901 58.5208C83.3236 58.5395 83.26 58.5453 83.205 58.5453C83.1746 58.5453 83.1428 58.5438 83.1096 58.5395L76.7345 57.8284L76.4569 57.7968L76.4858 57.5382C76.775 54.9895 78.2762 53.6333 80.6509 53.8919C81.7356 54.0126 82.6092 54.4594 83.179 55.182C83.7459 55.9018 83.9715 56.8414 83.8327 57.8988Z" fill="#8CE3B6"/>
<path d="M28.0917 60.8252C27.9703 58.6372 27.4699 56.8787 26.605 55.6001L26.5443 55.5082C26.5052 55.4493 26.4662 55.3904 26.4257 55.3358C26.3866 55.2855 26.3461 55.2381 26.3042 55.1907L26.2333 55.1088C25.9152 54.7281 25.5521 54.4034 25.1544 54.1189C23.7892 53.1449 21.9539 52.7268 19.5835 52.8547C18.2096 52.9294 16.8805 53.2857 15.6078 53.9106C14.8991 54.2597 14.2078 54.6878 13.5382 55.205L13.3705 55.3343L13.2085 55.1978C13.0523 55.0657 12.8903 54.9436 12.7283 54.8272C11.4687 53.9235 10.0311 53.481 8.35057 53.481C8.17558 53.481 7.99914 53.4853 7.81836 53.4954C6.05105 53.5917 4.46019 53.9911 3.05734 54.6778C2.28215 55.0571 1.56337 55.5211 0.909671 56.0785C0.250186 56.6575 -0.0390616 57.2896 0.00432558 58.0668L0.759263 71.7395C0.848929 73.35 2.25901 74.6559 3.85132 74.5669C5.49425 74.4778 6.70909 73.0957 6.61653 71.4206L5.9932 60.127L6.10746 60.0437C6.86673 59.4906 7.66361 59.1889 8.4764 59.1443C8.5516 59.14 8.62536 59.1386 8.69767 59.1386C9.80694 59.1386 11.1563 59.6299 11.285 61.9731L11.7912 71.1404C11.8794 72.7524 13.262 74.0511 14.8471 73.9692C16.4886 73.8801 17.7034 72.4981 17.6123 70.8229L16.9962 59.6615L17.0859 59.5782C17.7743 58.9418 18.5784 58.5941 19.4722 58.5453C21.3306 58.4447 22.1694 59.3311 22.2865 61.4487L22.7884 70.5399C22.878 72.1518 24.2592 73.452 25.8443 73.3687C27.5132 73.2782 28.7021 71.9248 28.6095 70.2224L28.0917 60.8252Z" fill="#FF8F91"/>
<path d="M108.296 89.4679L92.1731 88.6791C91.5672 88.6504 91.0364 89.1202 91.006 89.7293C90.9916 90.0239 91.0928 90.3069 91.2938 90.5267C91.4934 90.7451 91.7668 90.8744 92.0647 90.8887C92.082 90.8902 92.0994 90.8902 92.1182 90.8902C92.137 90.8902 92.1558 90.8902 92.1746 90.8887L108.297 90.1C108.466 90.0914 108.6 89.9535 108.6 89.7839C108.598 89.6158 108.465 89.4765 108.296 89.4679Z" fill="#8CE3B6"/>
<path d="M39.867 88.6791L23.7443 89.4679C23.5751 89.4765 23.4421 89.6144 23.4421 89.7839C23.4421 89.952 23.5751 90.0914 23.7443 90.1L39.867 90.8887C39.8858 90.8902 39.9046 90.8902 39.9234 90.8902C39.9408 90.8902 39.9596 90.8902 39.9769 90.8887C40.2734 90.8744 40.5482 90.7451 40.7478 90.5267C40.9474 90.3069 41.0501 90.0253 41.0356 89.7293C41.0023 89.1202 40.4716 88.6504 39.867 88.6791Z" fill="#8CE3B6"/>
<path d="M133.685 44.4315V44.42C133.685 44.0407 133.563 43.7247 133.337 43.4991C133.071 43.2348 132.672 43.0911 132.156 43.0911H130.303V44.3065V44.7131V45.1355V45.9774V46.0736V46.6353V46.6526V47.1181H130.402H130.529H130.574H130.637H130.763H130.951H131.196V46.0219V45.8294H131.502H131.896L132.04 46.0434L132.765 47.1181H133.807L132.817 45.68C133.332 45.4903 133.685 45.0823 133.685 44.4315ZM132.781 44.4775C132.781 44.8165 132.532 45.0464 132.098 45.0464H131.318H131.196V44.9386V43.8899H132.082C132.516 43.8899 132.782 44.0853 132.782 44.466V44.4775H132.781Z" fill="#FF8F91"/>
<path d="M131.854 41.0798C130.143 41.0798 128.67 42.1156 128.038 43.5882C127.983 43.7146 127.953 43.8525 127.911 43.9862C127.869 44.1183 127.817 44.2476 127.79 44.3855C127.736 44.6484 127.707 44.92 127.707 45.1987C127.707 45.2217 127.714 45.2432 127.714 45.2662C127.716 45.384 127.738 45.4975 127.749 45.6139C127.752 45.6354 127.754 45.657 127.756 45.6771C127.771 45.7935 127.769 45.9156 127.793 46.0291C127.797 46.0492 127.807 46.0679 127.811 46.088C127.876 46.3825 127.979 46.6612 128.104 46.927C128.119 46.9615 128.14 46.9916 128.157 47.0247C128.171 47.0534 128.187 47.0793 128.202 47.108C128.348 47.3838 128.523 47.6381 128.727 47.8723C128.952 48.1323 129.2 48.3708 129.483 48.5677C129.561 48.6222 129.644 48.6653 129.726 48.7128C129.762 48.7343 129.801 48.753 129.838 48.7731C129.942 48.832 130.043 48.8938 130.153 48.9441C130.175 48.9541 130.193 48.9685 130.215 48.9771C130.222 48.98 130.228 48.9843 130.234 48.9872C130.335 49.0303 130.445 49.0518 130.549 49.0863C130.679 49.1294 130.807 49.1768 130.942 49.2084C131.21 49.2687 131.486 49.3018 131.771 49.3075C131.8 49.3075 131.826 49.3162 131.854 49.3162C131.968 49.3162 132.075 49.2917 132.186 49.2831C132.327 49.2716 132.468 49.2659 132.604 49.2414C134.532 48.888 135.999 47.2143 135.999 45.1987C136 42.9273 134.14 41.0798 131.854 41.0798ZM132.669 48.3823C132.536 48.4154 132.402 48.4369 132.263 48.4542C132.127 48.4714 131.994 48.4958 131.854 48.4958C131.561 48.4958 131.284 48.447 131.013 48.3751C130.869 48.3378 130.723 48.299 130.587 48.243C130.574 48.2372 130.561 48.2329 130.548 48.2272C130.52 48.2157 130.496 48.197 130.467 48.1841C130.363 48.1367 130.266 48.0806 130.167 48.0232C130.162 48.0203 130.156 48.0174 130.15 48.0131C130.144 48.0102 130.138 48.0074 130.133 48.003C130.008 47.9269 129.894 47.8421 129.781 47.7516C129.294 47.3609 128.925 46.8408 128.721 46.2388C128.715 46.2216 128.711 46.2043 128.705 46.1885C128.66 46.0492 128.618 45.9084 128.592 45.7604C128.591 45.7489 128.591 45.7374 128.589 45.7259C128.568 45.5923 128.553 45.4573 128.548 45.3179C128.548 45.3136 128.546 45.3093 128.546 45.305C128.545 45.2691 128.534 45.2346 128.534 45.1987C128.534 44.953 128.566 44.7145 128.618 44.4847C128.649 44.3496 128.695 44.2218 128.741 44.0939C128.789 43.9632 128.844 43.8396 128.906 43.7175C129.454 42.6457 130.564 41.903 131.854 41.903C133.683 41.903 135.171 43.3813 135.171 45.1987C135.173 46.7345 134.104 48.0188 132.669 48.3823Z" fill="#FF8F91"/>
<path d="M104.058 62.0349C103.888 58.8943 102.78 56.6517 100.775 55.3616C100.746 55.3429 100.722 55.3199 100.694 55.3027C100.612 55.251 100.528 55.2021 100.443 55.1533C100.378 55.1174 100.311 55.0829 100.245 55.0498L100.19 55.0225C98.7593 54.2927 96.9631 53.9824 94.827 54.0988C93.4053 54.1749 92.082 54.3703 90.8903 54.6806C90.8947 54.6921 90.8961 54.7036 90.9005 54.7151C91.3546 56.113 91.4876 57.6818 91.2938 59.3857L91.1955 60.2592C91.1463 60.693 91.0364 61.1011 90.8629 61.5062C90.8383 61.6197 90.8079 61.7174 90.7689 61.805C90.2742 62.9156 89.4528 63.7833 88.4346 64.2804C89.1592 65.253 89.3327 65.8779 89.4108 66.1581C89.5395 66.6164 89.5728 67.0704 89.5207 67.5387C89.4846 67.8562 89.3993 68.1694 89.2677 68.4726C89.1071 68.9596 88.8367 69.4265 88.4737 69.8388C88.1888 70.2396 87.9776 70.4192 87.5669 70.7295C87.3297 70.9091 87.1026 71.0399 86.8828 71.1677C86.8004 71.2151 86.7194 71.2625 86.6384 71.3114L86.6818 72.4004C86.7686 74.0066 88.1598 75.3053 89.7738 75.2248C91.4168 75.1372 92.6316 73.7552 92.5405 72.08L91.9229 60.7907L92.0329 60.7074C92.7676 60.1471 93.7336 59.8411 94.9846 59.7736C96.8951 59.663 98.1562 60.795 98.2575 62.6541L98.755 71.7438C98.8432 73.3572 100.226 74.6545 101.809 74.574C102.625 74.5309 103.354 74.1861 103.862 73.6043C104.366 73.0253 104.619 72.2538 104.575 71.4292L104.058 62.0349Z" fill="#02C5FB"/>
<path d="M46.9608 63.2977C47.3036 61.4301 47.4526 59.4992 47.4019 57.5626C47.3991 56.9175 47.3239 56.2753 47.1792 55.6489C47.1633 55.5771 47.1445 55.5067 47.1243 55.4363L47.091 55.3056C47.0794 55.2567 47.0679 55.2079 47.0534 55.159C46.6571 53.8402 45.9065 52.6564 44.8233 51.6421C44.4227 51.2499 43.9917 50.8994 43.5304 50.589C42.0856 49.6164 40.3472 49.0461 38.3355 48.8938C36.5595 48.7573 34.9122 48.9972 33.4284 49.5934C33.4023 49.6035 33.3763 49.615 33.3488 49.625C33.1811 49.6926 33.0162 49.7673 32.8513 49.8434C32.3842 50.0675 31.933 50.3247 31.5034 50.6264C30.0341 51.632 29.0419 52.8877 28.4678 54.4637C29.5438 55.9291 30.1599 57.9404 30.2973 60.4445L30.7355 68.372C32.348 69.7382 34.3381 70.5198 36.6535 70.6951C38.9313 70.8703 41.0182 70.4293 42.7812 69.3805C42.8434 69.3432 42.9041 69.3044 42.9649 69.2656L43.0444 69.2139C43.1326 69.1578 43.2209 69.1004 43.3062 69.04L43.393 68.9826C43.4233 68.9625 43.4552 68.9438 43.4841 68.9222C45.4134 67.5301 46.5805 65.6409 46.9565 63.3035L46.9608 63.2977ZM41.0211 61.7634C40.8953 63.0405 40.2648 63.9916 39.2914 64.5016C38.778 64.7717 38.1735 64.9254 37.488 64.9254C37.3621 64.9254 37.2334 64.9211 37.1018 64.9111C36.3628 64.855 35.7265 64.6324 35.2029 64.2789C34.2643 63.6468 33.7061 62.5837 33.6713 61.2246C33.6395 60.0552 33.7335 58.8369 33.9505 57.6057C34.3236 55.5915 35.8045 54.435 37.8958 54.5973C40.0174 54.7582 41.3205 56.1288 41.2959 58.1732C41.241 59.4101 41.1484 60.6155 41.0211 61.7634Z" fill="#02C5FB"/>
<path d="M51.1115 92.9316C50.5923 93.0609 50.2235 93.1256 49.9849 93.1256C49.1403 93.1256 48.7281 92.6529 48.7281 91.6832V88.4493V88.1519H51.1969C51.8187 88.1519 52.3813 87.8013 52.6662 87.2971C52.7892 87.0801 52.8658 86.8388 52.8658 86.5802C52.8658 85.632 52.1297 84.9438 51.1969 84.9438H48.7267V83.6307C48.7267 82.6193 47.9038 81.7803 46.929 81.7803C46.1278 81.7803 45.4958 82.2889 45.2572 83.0058C45.1921 83.2012 45.1516 83.4095 45.1516 83.6307V91.7694C45.1516 94.5249 46.6036 96.3983 49.3992 96.3983C50.6343 96.3983 51.5888 96.2259 52.2598 95.9026C52.5896 95.7446 52.8282 95.5305 52.9815 95.2648C53.1204 95.0248 53.1912 94.7433 53.1912 94.4171C53.1912 93.3828 52.3466 92.6515 51.1115 92.9316Z" fill="#8CE3B6"/>
<path d="M63.2541 85.3806C62.2432 84.5301 60.9922 84.1149 59.4997 84.1149C58.0274 84.1149 56.7764 84.5301 55.7453 85.3806C55.0771 85.9164 54.6056 86.5543 54.3236 87.2985C54.1703 87.7036 54.0705 88.139 54.0315 88.6102C53.9216 89.6791 53.9216 90.7479 54.0315 91.7952C54.1414 93.1256 54.7112 94.216 55.7438 95.0895C56.775 95.9616 58.0274 96.3983 59.4982 96.3983C60.9908 96.3983 62.2432 95.9616 63.2527 95.1111C63.8225 94.6298 64.2477 94.0709 64.5355 93.4474C64.7698 92.9417 64.9159 92.3915 64.965 91.7967C65.0749 90.7494 65.0749 89.6805 64.965 88.6116C64.858 87.2784 64.2867 86.2095 63.2541 85.3806ZM59.4997 92.9288C58.4237 92.9288 57.7208 92.2535 57.6109 91.1832C57.5444 90.5511 57.5444 89.896 57.6109 89.2208C57.6297 89.0484 57.6702 88.8918 57.7208 88.7409C57.9725 87.9982 58.603 87.5399 59.4997 87.5399C60.6205 87.5399 61.3003 88.195 61.3668 89.2208C61.3885 89.896 61.3885 90.5511 61.3668 91.1832C61.3596 91.5237 61.2742 91.8182 61.1354 92.0682C60.836 92.6084 60.2633 92.9288 59.4997 92.9288Z" fill="#8CE3B6"/>
<path d="M75.0063 84.1149C74.2557 84.1149 73.5282 84.6666 73.2419 85.4869C73.2375 85.5012 73.2303 85.5127 73.226 85.5271C72.3987 87.9292 72.121 88.6935 71.5078 90.1704C71.5049 90.179 71.4977 90.1833 71.4934 90.1905C71.4225 90.3327 71.2706 90.3284 71.2099 90.1704C70.6343 88.9851 70.3407 88.0973 69.4281 85.5056C69.1533 84.6637 68.41 84.1149 67.6247 84.1149C66.9464 84.1149 66.4156 84.3893 66.0338 84.9366C65.9311 85.0861 65.8559 85.2426 65.8024 85.405C65.6679 85.8144 65.6882 86.2598 65.8848 86.7282L69.3197 94.7763C69.2734 94.8683 69.2228 94.9487 69.175 95.0363C68.7224 95.8725 68.2205 96.5305 67.6652 96.9873C67.3774 97.2186 67.1879 97.4988 67.0838 97.8192C67.0259 97.9944 66.9869 98.1769 66.9869 98.378C66.9869 99.3262 67.6652 100 68.6631 100C69.1504 100 69.5959 99.8319 70.0413 99.5158C71.0392 98.8205 71.9706 97.5361 72.8196 95.6397L76.6376 86.9882L76.7432 86.7497C77.0397 86.0975 76.9977 85.507 76.5942 84.9596C76.2153 84.3893 75.686 84.1149 75.0063 84.1149Z" fill="#8CE3B6"/>
<path d="M84.1017 88.8056L82.6829 88.4967C81.9511 88.343 81.5736 88.1002 81.5736 87.7913C81.5736 87.774 81.578 87.7582 81.5794 87.7424C81.6113 87.3574 82.0061 87.1534 82.7697 87.1534C83.3699 87.1534 83.9672 87.2856 84.5211 87.5715C85.4076 88.0125 86.3636 87.9464 86.8727 87.3287C86.932 87.264 86.9826 87.1922 87.0274 87.1146C87.3673 86.527 87.2805 85.6047 86.6731 85.0602C85.8531 84.3778 84.3909 83.9583 82.9924 83.9583C81.5939 83.9583 80.4412 84.3103 79.5099 85.0157C78.9574 85.4208 78.5741 85.9208 78.3485 86.5069C78.1938 86.9092 78.1128 87.3517 78.1128 87.8358C78.1128 89.7739 79.4882 90.9203 81.4175 91.4275C81.8832 91.5367 82.4371 91.6703 83.0806 91.801C83.769 91.9332 84.1017 92.176 84.1017 92.5279C84.1017 92.6774 84.0525 92.8009 83.9643 92.9043C83.7777 93.1198 83.4003 93.2333 82.816 93.2333C81.9511 93.2333 81.1297 93.0121 80.3979 92.5495C79.4882 92.0208 78.6016 92.153 78.0694 92.8799C77.9769 93.0078 77.9147 93.1529 77.8684 93.3037C77.6833 93.9129 77.8655 94.6585 78.3804 95.0823C79.4665 95.9414 80.9315 96.3609 82.7711 96.3609C84.1234 96.3609 85.2775 96.009 86.2089 95.3036C86.6803 94.9545 87.0318 94.5464 87.2675 94.081C87.5076 93.6054 87.6276 93.0724 87.6276 92.4834C87.6276 90.4793 86.5169 89.3558 84.1017 88.8056Z" fill="#8CE3B6"/>
</svg>
